<svg xmlns="http://www.w3.org/2000/svg" xmlns:xlink="http://www.w3.org/1999/xlink" viewBox="0 0 600 360.81"><defs><style>.cls-1{fill:none;}.cls-2{isolation:isolate;}.cls-22,.cls-3{opacity:0.8;}.cls-3{fill:url(#Áåçûìÿííûé_ãðàäèåíò_19);}.cls-4{opacity:0.67;}.cls-5{fill:#0f054c;}.cls-6{opacity:0.9;}.cls-7{fill:#080344;}.cls-8{fill:#42e8e0;}.cls-9{fill:url(#Áåçûìÿííûé_ãðàäèåíò_2);}.cls-10{fill:url(#Áåçûìÿííûé_ãðàäèåíò_24);}.cls-11{fill:#24126a;}.cls-12{opacity:0.51;}.cls-13{fill:#453c9e;}.cls-14{fill:url(#Áåçûìÿííûé_ãðàäèåíò_24-2);}.cls-15{fill:url(#Áåçûìÿííûé_ãðàäèåíò_2-2);}.cls-16{fill:#fff;}.cls-17{opacity:0.15;}.cls-18{clip-path:url(#clip-path);}.cls-19{fill:url(#Áåçûìÿííûé_ãðàäèåíò_24-3);}.cls-20{fill:url(#Áåçûìÿííûé_ãðàäèåíò_2-3);}.cls-21,.cls-23{opacity:0.5;}.cls-23{mix-blend-mode:lighten;fill:url(#Áåçûìÿííûé_ãðàäèåíò_21);}</style><radialGradient id="Áåçûìÿííûé_ãðàäèåíò_19" cx="-13" cy="54.41" r="439.34" gradientTransform="matrix(-1, 0, 0, 1, 600, 0)" gradientUnits="userSpaceOnUse"><stop offset="0" stop-color="#ff2c9c"/><stop offset="0.03" stop-color="#f62f9f"/><stop offset="0.2" stop-color="#c63eb0"/><stop offset="0.37" stop-color="#9e4bbe"/><stop offset="0.54" stop-color="#7f54c9"/><stop offset="0.7" stop-color="#695bd1"/><stop offset="0.86" stop-color="#5c60d5"/><stop offset="1" stop-color="#5761d7"/></radialGradient><linearGradient id="Áåçûìÿííûé_ãðàäèåíò_2" x1="29.7" y1="136" x2="186.02" y2="136" gradientTransform="matrix(-1, 0, 0, 1, 560.71, 0)" gradientUnits="userSpaceOnUse"><stop offset="0" stop-color="#c0bff6"/><stop offset="0.29" stop-color="#c5c4f7"/><stop offset="0.64" stop-color="#d3d2f9"/><stop offset="1" stop-color="#e9e9fd"/></linearGradient><linearGradient id="Áåçûìÿííûé_ãðàäèåíò_24" x1="29.7" y1="176.09" x2="56.54" y2="176.09" gradientTransform="matrix(-1, 0, 0, 1, 560.71, 0)" gradientUnits="userSpaceOnUse"><stop offset="0" stop-color="#5761d7"/><stop offset="0.18" stop-color="#5c66d9"/><stop offset="0.39" stop-color="#6a73df"/><stop offset="0.61" stop-color="#8289e8"/><stop offset="0.85" stop-color="#a3a7f5"/><stop offset="1" stop-color="#bcbeff"/></linearGradient><linearGradient id="Áåçûìÿííûé_ãðàäèåíò_24-2" x1="50.64" y1="219.83" x2="271.42" y2="219.83" xlink:href="#Áåçûìÿííûé_ãðàäèåíò_24"/><linearGradient id="Áåçûìÿííûé_ãðàäèåíò_2-2" x1="-47.44" y1="213.8" x2="277.89" y2="213.8" xlink:href="#Áåçûìÿííûé_ãðàäèåíò_2"/><clipPath id="clip-path"><polygon class="cls-1" points="527.29 125.2 391.33 46.74 374.25 148.31 510.12 226.72 527.29 125.2"/></clipPath><linearGradient id="Áåçûìÿííûé_ãðàäèåíò_24-3" x1="-34.26" y1="171.24" x2="186.52" y2="171.24" xlink:href="#Áåçûìÿííûé_ãðàäèåíò_24"/><linearGradient id="Áåçûìÿííûé_ãðàäèåíò_2-3" x1="39.93" y1="165.21" x2="260.83" y2="165.21" xlink:href="#Áåçûìÿííûé_ãðàäèåíò_2"/><linearGradient id="Áåçûìÿííûé_ãðàäèåíò_21" x1="612.91" y1="142.98" x2="659.54" y2="162.93" gradientTransform="translate(-148.43)" gradientUnits="userSpaceOnUse"><stop offset="0" stop-color="#42e8e0"/><stop offset="0.11" stop-color="#37b6bf"/><stop offset="0.22" stop-color="#2c87a1"/><stop offset="0.34" stop-color="#235f87"/><stop offset="0.46" stop-color="#1c3f72"/><stop offset="0.58" stop-color="#162561"/><stop offset="0.71" stop-color="#121355"/><stop offset="0.85" stop-color="#10084e"/><stop offset="1" stop-color="#0f054c"/></linearGradient></defs><title>Asset 3</title><g class="cls-2"><g id="Layer_2" data-name="Layer 2"><g id="Ñëîé_1" data-name="Ñëîé 1"><path class="cls-3" d="M583.37.54a4.94,4.94,0,0,0-4.49,0c-.94.54-1.17,1.32-.7,2L508.66,42.67V93.34l-16.94,9.78v55.11l-58,33.5-9-5.22,44.74-25.83V130.47l-.18-.11L418.35,101V90.75l28.77-16.61a5,5,0,0,0,4.1-.18,1.37,1.37,0,0,0,0-2.6,5,5,0,0,0-4.49,0c-1.12.65-1.22,1.65-.32,2.37L417.64,90.34V101.4l.18.11,50.87,29.37v29.39l-33.81,19.51V167.2l15.5-8.95a5,5,0,0,0,4.1-.19c1.24-.71,1.24-1.87,0-2.59a5,5,0,0,0-4.49,0c-1.12.65-1.22,1.65-.32,2.37l-15.5,8.95v13.4L424,186.1l-12.09-7V157.2L434.66,144V128.88l-.18-.11-48-27.71c.9-.72.8-1.72-.32-2.37a5,5,0,0,0-4.49,0c-1.24.72-1.24,1.88,0,2.59a5,5,0,0,0,4.1.19L434,129.29v14.33l-22.09,12.75v-15.1l-.18-.11-29.37-17c.9-.72.8-1.72-.32-2.37a4.94,4.94,0,0,0-4.49,0c-1.24.72-1.24,1.88,0,2.59a5,5,0,0,0,4.1.19l29.55,17.06v37l-8.5-4.91-14,8.08L376,174.57V156.79l-.18-.11-33.5-19.34V120.58a4.28,4.28,0,0,0,1.89-.52c1.24-.71,1.24-1.87,0-2.59a5,5,0,0,0-4.49,0c-1.24.72-1.24,1.88,0,2.59a4.28,4.28,0,0,0,1.89.52v17.17l.18.1,33.5,19.35v17l-54.53-31.48V109.31l29.57-17.08h27.13l.09,0L424.11,65.3a5,5,0,0,0,4.1-.18,1.37,1.37,0,0,0,0-2.6,5,5,0,0,0-4.49,0c-1.12.65-1.22,1.65-.32,2.37L377.27,91.52H351.56L437.1,42.13a5,5,0,0,0,4.1-.18,1.37,1.37,0,0,0,0-2.6,5,5,0,0,0-4.49,0c-1.12.65-1.22,1.66-.32,2.37L320,108.9v34.19l.18.1L388,182.29l-13.63,7.87L258.68,123.4V83.56l-.18-.1L219.18,60.75c.9-.71.8-1.72-.32-2.36a4.94,4.94,0,0,0-4.49,0c-1.24.71-1.24,1.87,0,2.59a5,5,0,0,0,4.1.18L258,84v39.84l.18.1,115.46,66.66-13,7.5L246.27,132h-68.2l-42.62-24.61V69.62a3.9,3.9,0,0,0,1.23-.44,1.37,1.37,0,0,0,0-2.59,4.94,4.94,0,0,0-4.49,0,1.37,1.37,0,0,0,0,2.59,4.76,4.76,0,0,0,2.55.52v38.14l.18.11,43,24.8h68.2l96.54,55.74H323.2l-32.95-19H264.87l-.08,0-35.2,20.32a5,5,0,0,0-4.1.19c-1.24.72-1.24,1.88,0,2.59a5,5,0,0,0,4.5,0c1.11-.64,1.21-1.65.31-2.36l34.77-20.07h25l32.95,19h20.84l16.07,9.28-34.64,20-9.85-5.69V197.86l-25-14.44c.9-.72.8-1.73-.31-2.37a5,5,0,0,0-4.5,0,1.37,1.37,0,0,0,0,2.59,5,5,0,0,0,4.1.19l25,14.44v14.11L288,197H275.39l-.08.05-15.06,8.7a5,5,0,0,0-4.1.18,1.37,1.37,0,0,0,0,2.6,5,5,0,0,0,4.49,0c1.12-.64,1.22-1.65.32-2.36l14.63-8.45h12.25l36.73,21.21-6.67,3.85L339.19,235l-10,5.76H314.14l-10.79-6.23c.86-.71.75-1.7-.36-2.34a5,5,0,0,0-4.49,0c-1.24.72-1.24,1.88,0,2.59a5,5,0,0,0,4.15.17L314,241.5h14l-25.43,14.68-59.82-34.54H199.69l-.08.05-24.23,14a5,5,0,0,0-4.1.19c-1.24.71-1.24,1.87,0,2.59a5,5,0,0,0,4.49,0c1.11-.65,1.21-1.65.32-2.37l23.79-13.74h42.67L288.69,249H268.94l-19.31-11.15c.9-.71.8-1.72-.32-2.36a4.94,4.94,0,0,0-4.49,0c-1.24.71-1.24,1.87,0,2.59a5,5,0,0,0,4.1.19l19.83,11.44h21.17l11.93,6.89-30.37,17.53H174.41L99,230.59c.89-.72.79-1.72-.32-2.37a5,5,0,0,0-4.5,0c-1.24.72-1.24,1.88,0,2.59a5,5,0,0,0,4.1.19l75.93,43.84h96l-12.05,7H186.35l-.08,0L150.83,302.3a5,5,0,0,0-4.1.18c-1.24.72-1.24,1.88,0,2.59a4.94,4.94,0,0,0,4.49,0c1.12-.64,1.22-1.65.32-2.36l35-20.21h71.85l.08-.05,81.43-47,9,5.22-85.61,49.43H200.72l-.08.05L125,333.8H20.25L0,322.11v.82l20.06,11.58H125.21l.08-.05,47.46-27.4v16.22l-31.28,18.06a5,5,0,0,0-4.1.18,1.37,1.37,0,0,0,0,2.6,5,5,0,0,0,4.49,0c1.12-.65,1.22-1.65.32-2.37l31.28-18.06V306.74h-.16l27.61-15.94h62.61l.08-.05,86-49.68L359.92,247,193,343.39v17.42h.71v-17l167-96.39,12.69,7.33-86.13,49.72v8.89l-15.27,8.82v20.44l-29.61,17.1a5,5,0,0,0-4.1.18,1.87,1.87,0,0,0-.86.92h6.2a1.59,1.59,0,0,0-.53-.69L272.63,343V322.58l14.56-8.41v32.74l8.6,5-15.49,8.94h1.42l14.78-8.53,14.77,8.53h1.42L287.9,346.5V304.87L374,255.15l11.55,6.67L324.63,297a5,5,0,0,0-4.1.19c-1.24.71-1.24,1.87,0,2.59a4.94,4.94,0,0,0,4.49,0c1.12-.64,1.22-1.65.32-2.37l61-35.18,11.15,6.43-72.91,42.1H304.72a1.86,1.86,0,0,0-.87-.95,5,5,0,0,0-4.49,0,1.37,1.37,0,0,0,0,2.6,5,5,0,0,0,4.49,0,1.88,1.88,0,0,0,.87-.94h20l.09-.05,73.34-42.35,4.5,2.6,3.47-2,17.46,10.09v14l-14.43,8.34v0H386.51l-.09,0-24.85,14.35a5,5,0,0,0-4.09.19c-1.24.71-1.24,1.87,0,2.59a4.94,4.94,0,0,0,4.49,0c1.11-.65,1.21-1.65.32-2.37L386.7,302.8H408l-42.43,24.49a5,5,0,0,0-4.19.15c-1.24.71-1.24,1.87,0,2.59a5,5,0,0,0,4.49,0c1.09-.63,1.22-1.61.39-2.32l52.92-30.55v6.75l-31.48,18.18v12.83l-25.63,14.8a5,5,0,0,0-4.1.19,1.37,1.37,0,0,0,0,2.59,4.94,4.94,0,0,0,4.49,0c1.11-.64,1.21-1.65.32-2.37l25.63-14.79V322.5l31.48-18.18v-7.57l4.41-2.55V279.35l-17.46-10.09,11.48-6.62,35.94,20.75V307l-24.41,14.09a5,5,0,0,0-4.19.14,1.37,1.37,0,0,0,0,2.6,5,5,0,0,0,4.49,0c1.1-.62,1.22-1.6.4-2.31l23.71-13.69v19.06l-18.74,10.81v23.14h.72V338.08l18-10.4v33.13H455V283L419,262.23l12.89-7.45,47,27.13V346.5l22.58,13v1.27h.71v-1.68l-22.58-13V281.5l-47-27.13,9.55-5.51,63.4,36.6v55.12l35.05,20.23H542l-35.76-20.64V285.05l-63.4-36.6,15.48-8.94,105.49,60.9v27.42L600,348.71v-.83l-35.44-20.46V300l-59.33-34.26h46.92L600,293.37v-.82L552.34,265H504L459.08,239.1l18-10.39L515.68,251h62L600,263.88v-.82l-4.89-2.82H600v-.71h-6.12l-16-9.24h-62l-10.8-6.24h26.36l.08-.05,13.22-7.63h55.09l.18.1v-.81H546l14.89-8.59a5,5,0,0,0,4.1-.19,1.37,1.37,0,0,0,0-2.59,4.94,4.94,0,0,0-4.49,0c-1.12.64-1.22,1.65-.32,2.37l-28.9,16.68h-27.4l-26.06-15,9.63-5.56-6.2-3.58h18l23.54,13.59c-.9.72-.8,1.72.32,2.37a4.94,4.94,0,0,0,4.49,0c1.24-.72,1.24-1.88,0-2.59a5,5,0,0,0-4.1-.19l-24.06-13.89H480l-13.17-7.61,8.1-4.68h14.37l12.64-7.29h9.43l21.3,12.29c-1,.72-.88,1.75.26,2.41a4.94,4.94,0,0,0,4.49,0c1.24-.72,1.24-1.88,0-2.59a5,5,0,0,0-4-.22l-21.83-12.6h-9.81l-12.64,7.29H476.14l25.91-14.95h14l29.16,16.83H600v-.71H545.38l-29.15-16.84H501.86l-.09.05-35.67,20.6-9.37-5.4,40.32-23.28h28.44l23.45,13.54H600v-.71H549.14l-22.23-12.83H600V181H496.86l-.08.05L456,204.62l-10.63-6.14L501.61,166H600v-.71H528.3l71.7-41.4v-.82l-73.12,42.22H502.12l53.31-30.78v-6.78L580.93,113a5,5,0,0,0,4.1-.18c1.24-.72,1.24-1.88,0-2.59a4.94,4.94,0,0,0-4.49,0c-1.12.64-1.22,1.65-.32,2.36l-13.89,8V102L600,82.61v-.82l-34.38,19.84V121l-10.9,6.3v6.78l-53.74,31,.18.31-56.48,32.61-10.27-5.93,58-33.5V103.53L600,41.42V40.6L509.37,92.93V43.08L578.73,3l.15.1a4.94,4.94,0,0,0,4.49,0C584.61,2.41,584.61,1.25,583.37.54ZM486,222.74l-83.34,48.11-83.33-48.11,83.33-48.12Z"/><g class="cls-4"><polygon class="cls-5" points="403.65 327.73 234.86 230.28 403.65 132.83 572.44 230.28 403.65 327.73"/></g><g class="cls-4"><polygon class="cls-5" points="403.65 312.61 261.04 230.28 403.65 147.94 546.26 230.28 403.65 312.61"/></g><g class="cls-6"><polygon class="cls-7" points="403.65 295.05 291.45 230.28 403.65 165.5 515.85 230.28 403.65 295.05"/></g><path class="cls-8" d="M426.74,297.15a6.18,6.18,0,0,1-3-.77L289.76,219.05a2.49,2.49,0,0,1-1.45-2,1.94,1.94,0,0,1,1.1-1.66l79.92-46.15a6,6,0,0,1,5.44.21l133.94,77.33a2.52,2.52,0,0,1,1.45,2,2,2,0,0,1-1.09,1.66l-79.93,46.15A5,5,0,0,1,426.74,297.15Zm-136.5-78.93,133.94,77.33a5.08,5.08,0,0,0,4.48.21l79.93-46.15a1.06,1.06,0,0,0,.62-.83c0-.4-.37-.85-1-1.2L374.29,170.25a5.08,5.08,0,0,0-4.48-.21l-79.93,46.15a1.06,1.06,0,0,0-.62.83c0,.4.37.85,1,1.2Z"/><path class="cls-9" d="M374.72,145.72,391.65,45.27l-1.36-.57,2-1.18h0a1.5,1.5,0,0,1,1.58.11l135.32,78.13a3.81,3.81,0,0,1,1.75,3.44L513.92,226.46a1.26,1.26,0,0,1-.71,1h0l-2,1.16-.35-1.87.12,0L376.47,149.16A3.81,3.81,0,0,1,374.72,145.72Z"/><path class="cls-10" d="M528.47,124.52l2.23-1a3,3,0,0,1,.28,1.68L513.92,226.46a1.26,1.26,0,0,1-.71,1h0l-2,1.16-.35-1.87.12,0-6.81-3.93Z"/><path class="cls-11" d="M374.35,150.38l135.32,78.13c1.05.6,1.94.25,2.13-.83l17.06-101.25A3.8,3.8,0,0,0,527.1,123L391.78,44.86c-1-.6-1.94-.25-2.12.83L372.59,146.94A3.84,3.84,0,0,0,374.35,150.38Z"/><g class="cls-12"><polygon class="cls-13" points="391.33 46.74 527.29 125.2 510.12 226.72 374.25 148.31 391.33 46.74"/></g><path class="cls-14" d="M289.29,198.32l7.38,3.85,74.05-42.75a5.36,5.36,0,0,1,4.84.2l127.71,73.74c1.23-.69,6.8-3.37,6.8-3.37l-2.7,4.4h0a1.71,1.71,0,0,1-.76.84l-78,45a5.4,5.4,0,0,1-4.83-.2l-130.7-75.46a2.33,2.33,0,0,1-1.1-1.17h0Z"/><path class="cls-15" d="M290.43,199.53l133.94,77.33a5.52,5.52,0,0,0,5,.21l79.93-46.15c1.27-.73,1.11-2-.36-2.86L375,150.73a5.52,5.52,0,0,0-5-.21l-79.93,46.15C288.8,197.4,289,198.68,290.43,199.53Z"/><path class="cls-16" d="M290.43,198.93l133.94,77.33a5.52,5.52,0,0,0,5,.21l79.93-46.15a1.56,1.56,0,0,0,.8-.93,1.36,1.36,0,0,1-.8,1.53l-79.93,46.15a5.52,5.52,0,0,1-5-.21L290.43,199.53c-.95-.55-1.34-1.28-1.16-1.92A2.27,2.27,0,0,0,290.43,198.93Z"/><g class="cls-17"><g class="cls-18"><path class="cls-19" d="M374.19,149.73l7.38,3.85,74.05-42.75a5.37,5.37,0,0,1,4.83.2l127.72,73.74c1.22-.69,6.8-3.37,6.8-3.37l-2.71,4.4h0a1.61,1.61,0,0,1-.75.84l-78,45a5.42,5.42,0,0,1-4.84-.2L378,156a2.33,2.33,0,0,1-1.1-1.17h0Z"/><path class="cls-20" d="M375.33,150.94l133.94,77.33a5.52,5.52,0,0,0,5,.21l79.93-46.15c1.27-.73,1.11-2-.36-2.86L459.86,102.14a5.52,5.52,0,0,0-5-.21L375,148.08C373.7,148.81,373.86,150.09,375.33,150.94Z"/><path class="cls-16" d="M593.8,179.47,459.86,102.14a5.81,5.81,0,0,0-3.31-.67,5.49,5.49,0,0,1,2.32.67l133.94,77.33c1.47.85,1.63,2.13.36,2.86l-79.93,46.15a4.14,4.14,0,0,1-1.64.47,4.73,4.73,0,0,0,2.63-.47l79.93-46.15C595.43,181.6,595.27,180.32,593.8,179.47Z"/><g class="cls-21"><path class="cls-11" d="M445.49,137.63l-4.3-2.48a1.42,1.42,0,0,0-1.3,0L435.12,138c-.38.22-.4.56-.05.76l4.29,2.48a1.42,1.42,0,0,0,1.3,0l4.77-2.78C445.81,138.17,445.83,137.83,445.49,137.63Z"/><path class="cls-11" d="M452.12,141.46l-4.3-2.48a1.42,1.42,0,0,0-1.3,0l-4.77,2.79c-.37.22-.4.56-.05.76L446,145a1.42,1.42,0,0,0,1.3,0l4.77-2.79C452.44,142,452.46,141.66,452.12,141.46Z"/><path class="cls-11" d="M458.75,145.28l-4.29-2.47a1.44,1.44,0,0,0-1.31,0l-4.77,2.79c-.37.22-.4.56-.05.76l4.29,2.48a1.45,1.45,0,0,0,1.3,0l4.77-2.79C459.07,145.82,459.09,145.48,458.75,145.28Z"/><path class="cls-11" d="M453.7,150.38l-4.29-2.48a1.44,1.44,0,0,0-1.31,0l-4,2.34c-.38.22-.4.55-.06.75l4.3,2.48a1.42,1.42,0,0,0,1.3,0l4-2.34C454,150.92,454.05,150.58,453.7,150.38Z"/><path class="cls-11" d="M460.33,154.21,456,151.73a1.45,1.45,0,0,0-1.3,0l-4,2.35c-.38.21-.4.55-.06.75l4.3,2.48a1.42,1.42,0,0,0,1.3,0l4-2.34C460.65,154.75,460.68,154.41,460.33,154.21Z"/><path class="cls-11" d="M467,158l-4.29-2.48a1.42,1.42,0,0,0-1.3,0l-4,2.34c-.37.22-.4.56-.05.76l4.29,2.48a1.42,1.42,0,0,0,1.3,0l4-2.34C467.28,158.57,467.31,158.23,467,158Z"/><path class="cls-11" d="M473.59,161.86l-4.29-2.47a1.42,1.42,0,0,0-1.3,0l-4,2.34c-.37.22-.4.56-.05.76l4.29,2.48a1.42,1.42,0,0,0,1.3,0l4-2.34C473.91,162.4,473.94,162.06,473.59,161.86Z"/><path class="cls-11" d="M480.22,165.69l-4.29-2.48a1.42,1.42,0,0,0-1.3,0l-4,2.34c-.37.22-.4.56-.05.76l4.29,2.48a1.45,1.45,0,0,0,1.3,0l4-2.34C480.54,166.23,480.57,165.89,480.22,165.69Z"/><path class="cls-11" d="M486.85,169.52,482.56,167a1.42,1.42,0,0,0-1.3,0l-4,2.34c-.37.22-.4.56-.05.75l4.29,2.48a1.42,1.42,0,0,0,1.3,0l4-2.34C487.17,170.06,487.2,169.72,486.85,169.52Z"/><path class="cls-11" d="M493.48,173.35l-4.29-2.48a1.42,1.42,0,0,0-1.3,0l-4,2.34c-.37.21-.4.55-.05.75l4.29,2.48a1.45,1.45,0,0,0,1.3,0l4-2.34C493.8,173.89,493.83,173.55,493.48,173.35Z"/><path class="cls-11" d="M500.11,177.18l-4.29-2.48a1.42,1.42,0,0,0-1.3,0l-4,2.34c-.37.22-.4.56-.05.76l4.29,2.48a1.42,1.42,0,0,0,1.3,0l4-2.34C500.43,177.71,500.46,177.38,500.11,177.18Z"/><path class="cls-11" d="M506.75,181l-4.3-2.47a1.42,1.42,0,0,0-1.3,0l-4,2.34c-.37.22-.4.56-.05.76l4.29,2.48a1.42,1.42,0,0,0,1.3,0l4-2.34C507.07,181.54,507.09,181.2,506.75,181Z"/><path class="cls-11" d="M513.38,184.83l-4.3-2.48a1.42,1.42,0,0,0-1.3,0l-4,2.34c-.37.22-.4.56,0,.76L508,188a1.44,1.44,0,0,0,1.31,0l4-2.34C513.7,185.37,513.72,185,513.38,184.83Z"/><path class="cls-11" d="M450.94,155.84l-4.29-2.47a1.44,1.44,0,0,0-1.31,0l-4,2.34c-.38.22-.4.56-.06.76l4.3,2.48a1.42,1.42,0,0,0,1.3,0l4-2.34C451.26,156.38,451.28,156,450.94,155.84Z"/><path class="cls-11" d="M444.21,152l-4.29-2.48a1.44,1.44,0,0,0-1.31,0l-4,2.34c-.38.22-.4.55-.06.75l4.3,2.48a1.42,1.42,0,0,0,1.3,0l4-2.34C444.53,152.5,444.55,152.16,444.21,152Z"/><path class="cls-11" d="M437.47,148.07l-9.25-5.34a1.45,1.45,0,0,0-1.3,0l-4,2.34c-.37.22-.4.56-.05.76l9.25,5.34a1.42,1.42,0,0,0,1.3,0l4-2.34C437.79,148.61,437.81,148.27,437.47,148.07Z"/><path class="cls-11" d="M429.65,150.61l-7.51-4.33a1.42,1.42,0,0,0-1.3,0l-4,2.34c-.38.21-.4.55-.06.75l7.51,4.33a1.42,1.42,0,0,0,1.3,0l4-2.34C430,151.15,430,150.81,429.65,150.61Z"/><path class="cls-11" d="M457.57,159.67l-4.29-2.48a1.44,1.44,0,0,0-1.31,0l-4,2.34c-.38.22-.4.56-.06.76l4.3,2.48a1.46,1.46,0,0,0,1.3,0l4-2.34C457.89,160.21,457.91,159.87,457.57,159.67Z"/><path class="cls-11" d="M464.2,163.5,459.91,161a1.44,1.44,0,0,0-1.31,0l-4,2.34c-.38.22-.4.56-.06.75l4.3,2.48a1.42,1.42,0,0,0,1.3,0l4-2.34C464.52,164,464.54,163.7,464.2,163.5Z"/><path class="cls-11" d="M470.83,167.33l-4.29-2.48a1.44,1.44,0,0,0-1.31,0l-4,2.34c-.38.22-.4.55-.06.75l4.3,2.48a1.45,1.45,0,0,0,1.3,0l4-2.34C471.15,167.87,471.18,167.53,470.83,167.33Z"/><path class="cls-11" d="M477.46,171.16l-4.29-2.48a1.47,1.47,0,0,0-1.31,0l-4,2.34c-.38.22-.4.56-.06.76l4.3,2.48a1.42,1.42,0,0,0,1.3,0l4-2.34C477.78,171.69,477.81,171.36,477.46,171.16Z"/><path class="cls-11" d="M484.09,175l-4.29-2.47a1.44,1.44,0,0,0-1.31,0l-4,2.34c-.38.22-.4.56-.06.76l4.3,2.48a1.42,1.42,0,0,0,1.3,0l4-2.34C484.41,175.52,484.44,175.18,484.09,175Z"/><path class="cls-11" d="M490.72,178.81l-4.29-2.48a1.45,1.45,0,0,0-1.3,0l-4,2.34c-.38.22-.4.56-.05.76l4.29,2.48a1.42,1.42,0,0,0,1.3,0l4-2.34C491,179.35,491.07,179,490.72,178.81Z"/><path class="cls-11" d="M497.35,182.64l-4.29-2.48a1.42,1.42,0,0,0-1.3,0l-4,2.34c-.37.22-.4.56-.05.76l4.29,2.47a1.42,1.42,0,0,0,1.3,0l4-2.34C497.67,183.18,497.7,182.84,497.35,182.64Z"/><path class="cls-11" d="M504,186.47,499.69,184a1.42,1.42,0,0,0-1.3,0l-4,2.34c-.37.22-.4.55-.05.75l4.29,2.48a1.42,1.42,0,0,0,1.3,0l4-2.34C504.3,187,504.33,186.67,504,186.47Z"/><path class="cls-11" d="M510.61,190.3l-4.29-2.48a1.45,1.45,0,0,0-1.3,0l-4,2.34c-.37.22-.4.56-.05.76l4.29,2.48a1.42,1.42,0,0,0,1.3,0l4-2.34C510.93,190.84,511,190.5,510.61,190.3Z"/><path class="cls-11" d="M522.4,197.1,513,191.69a1.45,1.45,0,0,0-1.3,0l-4,2.34c-.37.22-.39.56-.05.76l9.37,5.41a1.42,1.42,0,0,0,1.3,0l4-2.34C522.72,197.64,522.75,197.3,522.4,197.1Z"/><path class="cls-11" d="M510.25,204.2l-7.91-4.56a1.42,1.42,0,0,0-1.3,0L497,202c-.37.21-.4.55,0,.75l7.9,4.57a1.44,1.44,0,0,0,1.31,0l4-2.34C510.57,204.74,510.59,204.4,510.25,204.2Z"/><path class="cls-11" d="M456.65,166.2l-4.29-2.48a1.44,1.44,0,0,0-1.31,0l-4,2.34c-.38.22-.4.56-.06.75l4.3,2.48a1.42,1.42,0,0,0,1.3,0l4-2.34C457,166.74,457,166.4,456.65,166.2Z"/><path class="cls-11" d="M449.85,162.28l-4.29-2.48a1.45,1.45,0,0,0-1.3,0l-4,2.34c-.37.22-.4.56-.05.76l4.29,2.48a1.42,1.42,0,0,0,1.3,0l4-2.34C450.17,162.81,450.2,162.48,449.85,162.28Z"/><path class="cls-11" d="M443.06,158.35l-4.3-2.48a1.46,1.46,0,0,0-1.3,0l-4,2.34c-.38.22-.4.56-.06.76l4.29,2.48a1.44,1.44,0,0,0,1.31,0l4-2.34C443.38,158.89,443.4,158.55,443.06,158.35Z"/><path class="cls-11" d="M436.26,154.43,432,152a1.42,1.42,0,0,0-1.3,0l-4,2.34c-.37.22-.4.56-.05.75l4.29,2.48a1.42,1.42,0,0,0,1.3,0l4-2.34C436.58,155,436.61,154.63,436.26,154.43Z"/><path class="cls-11" d="M463.28,170,459,167.55a1.44,1.44,0,0,0-1.31,0l-4,2.34c-.38.22-.4.55-.06.75l4.3,2.48a1.45,1.45,0,0,0,1.3,0l4-2.34C463.6,170.57,463.62,170.23,463.28,170Z"/><path class="cls-11" d="M469.91,173.86l-4.29-2.48a1.44,1.44,0,0,0-1.31,0l-4,2.34c-.38.22-.4.56-.06.76l4.3,2.48a1.42,1.42,0,0,0,1.3,0l4-2.34C470.23,174.39,470.25,174.06,469.91,173.86Z"/><path class="cls-11" d="M476.54,177.68l-4.29-2.47a1.44,1.44,0,0,0-1.31,0l-4,2.34c-.38.22-.4.56-.06.76l4.3,2.48a1.42,1.42,0,0,0,1.3,0l4-2.34C476.86,178.22,476.89,177.88,476.54,177.68Z"/><path class="cls-11" d="M483.17,181.51,478.88,179a1.48,1.48,0,0,0-1.31,0l-4,2.34c-.38.22-.4.56-.06.76l4.3,2.48a1.42,1.42,0,0,0,1.3,0l4-2.34C483.49,182.05,483.52,181.71,483.17,181.51Z"/><path class="cls-11" d="M489.8,185.34l-4.29-2.48a1.42,1.42,0,0,0-1.3,0l-4,2.34c-.38.22-.4.56-.05.76l4.29,2.47a1.42,1.42,0,0,0,1.3,0l4-2.34C490.12,185.88,490.15,185.54,489.8,185.34Z"/><path class="cls-11" d="M496.43,189.17l-4.29-2.48a1.42,1.42,0,0,0-1.3,0l-4,2.34c-.37.22-.4.55-.05.75l4.29,2.48a1.42,1.42,0,0,0,1.3,0l4-2.34C496.75,189.71,496.78,189.37,496.43,189.17Z"/><path class="cls-11" d="M503.06,193l-4.29-2.48a1.45,1.45,0,0,0-1.3,0l-4,2.34c-.37.22-.4.56,0,.76l4.29,2.48a1.42,1.42,0,0,0,1.3,0l4-2.34C503.38,193.54,503.41,193.2,503.06,193Z"/><path class="cls-11" d="M509.69,196.83l-4.29-2.48a1.42,1.42,0,0,0-1.3,0l-4,2.34c-.37.22-.4.56,0,.76l4.29,2.48a1.42,1.42,0,0,0,1.3,0l4-2.34C510,197.36,510,197,509.69,196.83Z"/><path class="cls-11" d="M516.32,200.65,512,198.17a1.45,1.45,0,0,0-1.3,0l-4,2.34c-.37.22-.4.56-.05.76l4.29,2.48a1.42,1.42,0,0,0,1.3,0l4-2.34C516.64,201.19,516.67,200.85,516.32,200.65Z"/><path class="cls-11" d="M440.63,164l-4.3-2.48a1.42,1.42,0,0,0-1.3,0l-4,2.34c-.37.22-.4.55,0,.75l4.29,2.48a1.47,1.47,0,0,0,1.31,0l4-2.34C441,164.55,441,164.21,440.63,164Z"/><path class="cls-11" d="M434,160.2l-4.3-2.48a1.42,1.42,0,0,0-1.3,0l-4,2.34c-.38.22-.4.56-.06.75l4.3,2.48a1.42,1.42,0,0,0,1.3,0l4-2.34C434.35,160.74,434.37,160.4,434,160.2Z"/><path class="cls-11" d="M427.43,156.39l-4.29-2.48a1.44,1.44,0,0,0-1.31,0l-4,2.34c-.38.22-.4.56-.06.76l4.3,2.47a1.42,1.42,0,0,0,1.3,0l4-2.34C427.75,156.93,427.78,156.59,427.43,156.39Z"/><path class="cls-11" d="M420.83,152.58l-4.29-2.48a1.42,1.42,0,0,0-1.3,0l-4,2.34c-.37.22-.4.56-.05.76l4.29,2.47a1.42,1.42,0,0,0,1.3,0l4-2.34C421.15,153.12,421.18,152.78,420.83,152.58Z"/><path class="cls-11" d="M414.44,156.31l-4.29-2.48a1.45,1.45,0,0,0-1.3,0l-1.33.77c-.37.22-.39.56,0,.76l4.29,2.48a1.44,1.44,0,0,0,1.31,0l1.32-.77C414.77,156.85,414.79,156.51,414.44,156.31Z"/><path class="cls-11" d="M423.05,161.28l-4.29-2.47a1.42,1.42,0,0,0-1.3,0l-1.33.78c-.37.21-.39.55-.05.75l4.29,2.48a1.47,1.47,0,0,0,1.31,0L423,162C423.38,161.82,423.4,161.48,423.05,161.28Z"/><path class="cls-11" d="M429.62,165.08l-4.29-2.48a1.45,1.45,0,0,0-1.3,0l-1.33.78c-.37.22-.39.56-.05.76l4.29,2.47a1.44,1.44,0,0,0,1.31,0l1.32-.78C430,165.62,430,165.28,429.62,165.08Z"/><path class="cls-11" d="M436.19,168.87l-4.29-2.48a1.42,1.42,0,0,0-1.3,0l-1.33.77c-.37.22-.39.56,0,.76l4.29,2.48a1.44,1.44,0,0,0,1.31,0l1.32-.77C436.52,169.41,436.54,169.07,436.19,168.87Z"/><path class="cls-11" d="M442.76,172.66l-4.29-2.47a1.42,1.42,0,0,0-1.3,0l-1.33.78c-.37.21-.39.55,0,.75l4.29,2.48a1.44,1.44,0,0,0,1.31,0l1.32-.77C443.09,173.2,443.11,172.86,442.76,172.66Z"/><path class="cls-11" d="M479.44,193.84l-4.29-2.48a1.42,1.42,0,0,0-1.3,0l-1.33.77c-.37.22-.4.56,0,.76l4.29,2.48a1.44,1.44,0,0,0,1.31,0l1.32-.77C479.76,194.38,479.79,194,479.44,193.84Z"/><path class="cls-11" d="M486,197.63l-4.29-2.47a1.42,1.42,0,0,0-1.3,0l-1.33.78c-.37.21-.4.55,0,.75l4.29,2.48a1.44,1.44,0,0,0,1.31,0l1.32-.77C486.33,198.17,486.36,197.83,486,197.63Z"/><path class="cls-11" d="M492.58,201.43,488.29,199a1.45,1.45,0,0,0-1.3,0l-1.33.78c-.37.22-.4.56-.05.76L489.9,203a1.44,1.44,0,0,0,1.31,0l1.32-.78C492.91,202,492.93,201.63,492.58,201.43Z"/><path class="cls-11" d="M499.15,205.22l-4.29-2.48a1.42,1.42,0,0,0-1.3,0l-1.33.77c-.37.22-.4.56-.05.76l4.29,2.48a1.44,1.44,0,0,0,1.31,0l1.32-.77C499.48,205.76,499.5,205.42,499.15,205.22Z"/><path class="cls-11" d="M447.26,167.84l-4.3-2.48a1.45,1.45,0,0,0-1.3,0l-4,2.34c-.37.22-.4.56,0,.76l4.29,2.48a1.44,1.44,0,0,0,1.31,0l4-2.34C447.58,168.37,447.6,168,447.26,167.84Z"/><path class="cls-11" d="M453.89,171.67l-4.3-2.48a1.42,1.42,0,0,0-1.3,0l-4,2.34c-.37.22-.39.56,0,.76l4.29,2.48a1.44,1.44,0,0,0,1.31,0l4-2.34C454.21,172.2,454.23,171.86,453.89,171.67Z"/><path class="cls-11" d="M460.52,175.49l-4.3-2.48a1.46,1.46,0,0,0-1.3,0l-4,2.34c-.38.22-.4.56-.06.76l4.29,2.48a1.44,1.44,0,0,0,1.31,0l4-2.34C460.84,176,460.86,175.69,460.52,175.49Z"/><path class="cls-11" d="M467.15,179.32l-4.3-2.48a1.42,1.42,0,0,0-1.3,0l-4,2.34c-.38.22-.4.56-.06.76l4.29,2.47a1.44,1.44,0,0,0,1.31,0l4-2.34C467.47,179.86,467.49,179.52,467.15,179.32Z"/><path class="cls-11" d="M473.78,183.15l-4.3-2.48a1.42,1.42,0,0,0-1.3,0l-4,2.34c-.38.22-.4.55-.06.75l4.3,2.48a1.42,1.42,0,0,0,1.3,0l4-2.34C474.1,183.69,474.12,183.35,473.78,183.15Z"/><path class="cls-11" d="M480.41,187l-4.29-2.48a1.47,1.47,0,0,0-1.31,0l-4,2.35c-.38.21-.4.55-.06.75l4.3,2.48a1.42,1.42,0,0,0,1.3,0l4-2.34C480.73,187.52,480.75,187.18,480.41,187Z"/><path class="cls-11" d="M487,190.81l-4.29-2.48a1.44,1.44,0,0,0-1.31,0l-4,2.34c-.38.22-.4.56-.06.76l4.3,2.48a1.42,1.42,0,0,0,1.3,0l4-2.34C487.36,191.34,487.38,191,487,190.81Z"/><path class="cls-11" d="M493.67,194.63l-4.29-2.47a1.44,1.44,0,0,0-1.31,0l-4,2.34c-.38.22-.4.56-.06.76l4.3,2.48a1.42,1.42,0,0,0,1.3,0l4-2.34C494,195.17,494,194.83,493.67,194.63Z"/><path class="cls-11" d="M500.3,198.46,496,196a1.44,1.44,0,0,0-1.31,0l-4,2.34c-.38.22-.4.56-.06.76l4.3,2.48a1.45,1.45,0,0,0,1.3,0l4-2.34C500.62,199,500.65,198.66,500.3,198.46Z"/><path class="cls-11" d="M446.94,146.48l-12.64-7.3a1.42,1.42,0,0,0-1.3,0l-4,2.34c-.37.22-.4.56-.05.76l12.64,7.3a1.45,1.45,0,0,0,1.3,0l4-2.34C447.26,147,447.29,146.68,446.94,146.48Z"/><path class="cls-11" d="M528.4,193.51l-12.64-7.3a1.44,1.44,0,0,0-1.31,0l-4,2.34c-.38.22-.4.56-.06.76l12.65,7.3a1.45,1.45,0,0,0,1.3,0l4-2.35C528.72,194.05,528.75,193.71,528.4,193.51Z"/><path class="cls-11" d="M516.1,178.4l-4.29-2.48a1.42,1.42,0,0,0-1.3,0l-4.77,2.78c-.38.22-.4.56-.06.76L510,182a1.44,1.44,0,0,0,1.31,0l4.77-2.78C516.42,178.94,516.45,178.6,516.1,178.4Z"/><path class="cls-11" d="M468,150.6l-6.86-4a1.44,1.44,0,0,0-1.31,0L455,149.46c-.37.22-.4.56-.05.75l6.86,4a1.44,1.44,0,0,0,1.31,0l4.77-2.78C468.27,151.14,468.3,150.8,468,150.6Z"/><path class="cls-11" d="M509.72,174.71l-6.87-4a1.42,1.42,0,0,0-1.3,0l-4.78,2.79c-.37.22-.4.56,0,.76l6.87,4a1.42,1.42,0,0,0,1.3,0l4.77-2.78C510,175.25,510.06,174.91,509.72,174.71Z"/><path class="cls-11" d="M477.52,156.12l-6.87-4a1.42,1.42,0,0,0-1.3,0L464.58,155c-.38.22-.4.56-.06.76l6.87,4a1.42,1.42,0,0,0,1.3,0l4.77-2.79C477.84,156.66,477.86,156.32,477.52,156.12Z"/><path class="cls-11" d="M464.57,155.76,494.42,173a1.47,1.47,0,0,0,1.31,0l4.86-2.84c.35-.21.33-.55,0-.76L470.7,152.18Z"/><path class="cls-11" d="M528.32,189l4.78,2.76a1.19,1.19,0,0,0,1.07,0l2-1.14c.31-.18.33-.46,0-.62l-4.78-2.76a1.16,1.16,0,0,0-1.07,0l-1.95,1.14C528.05,188.57,528,188.85,528.32,189Z"/><path class="cls-11" d="M521.63,185.15l4.78,2.76a1.19,1.19,0,0,0,1.07,0l1.95-1.14c.31-.18.33-.46.05-.62l-4.79-2.76a1.17,1.17,0,0,0-1.06,0l-2,1.14C521.37,184.71,521.35,185,521.63,185.15Z"/><path class="cls-11" d="M515,181.32l4.78,2.76a1.19,1.19,0,0,0,1.07,0l1.95-1.14c.31-.18.33-.46.05-.62l-4.79-2.76a1.17,1.17,0,0,0-1.06,0l-2,1.14C514.74,180.88,514.72,181.16,515,181.32Z"/><path class="cls-11" d="M518.18,187.16l4.78,2.76a1.16,1.16,0,0,0,1.07,0l2-1.14c.31-.18.33-.45,0-.62l-4.78-2.76a1.19,1.19,0,0,0-1.07,0l-1.95,1.14C517.92,186.72,517.9,187,518.18,187.16Z"/></g></g></g><g class="cls-22"><path class="cls-11" d="M352,191l-4.25-2.46c-.34-.2-.3-.54.1-.77l5-2.9a1.49,1.49,0,0,1,1.33-.05l4.25,2.45c.34.2.3.55-.1.77l-5,2.9A1.51,1.51,0,0,1,352,191Z"/><path class="cls-11" d="M358.61,194.76l-4.25-2.46c-.34-.19-.3-.54.09-.77l5-2.89a1.46,1.46,0,0,1,1.33-.06l4.26,2.46c.34.19.29.54-.1.76l-5,2.9A1.49,1.49,0,0,1,358.61,194.76Z"/><path class="cls-11" d="M365.18,198.55l-4.26-2.46c-.34-.19-.29-.54.1-.76l5-2.9a1.46,1.46,0,0,1,1.33-.06l4.25,2.46c.34.19.3.54-.09.77l-5,2.89A1.46,1.46,0,0,1,365.18,198.55Z"/><path class="cls-11" d="M374.26,195.42,370,193c-.35-.19-.3-.54.09-.77l4.21-2.43a1.48,1.48,0,0,1,1.34,0l4.25,2.45c.34.2.3.54-.1.77l-4.21,2.43A1.46,1.46,0,0,1,374.26,195.42Z"/><path class="cls-11" d="M380.82,199.21l-4.25-2.46c-.34-.19-.3-.54.1-.76l4.21-2.44a1.49,1.49,0,0,1,1.33-.05l4.26,2.45c.34.2.29.54-.1.77l-4.21,2.43A1.48,1.48,0,0,1,380.82,199.21Z"/><path class="cls-11" d="M387.39,203l-4.25-2.45c-.34-.2-.3-.55.09-.77l4.22-2.44a1.49,1.49,0,0,1,1.33-.05l4.25,2.45c.34.2.3.55-.09.77L388.72,203A1.49,1.49,0,0,1,387.39,203Z"/><path class="cls-11" d="M394,206.79l-4.25-2.45c-.35-.2-.3-.54.09-.77l4.21-2.43a1.48,1.48,0,0,1,1.34-.06l4.25,2.46c.34.19.3.54-.1.76l-4.21,2.44A1.49,1.49,0,0,1,394,206.79Z"/><path class="cls-11" d="M400.52,210.58l-4.25-2.45c-.34-.2-.3-.54.1-.77l4.21-2.43a1.46,1.46,0,0,1,1.33-.06l4.26,2.46c.34.19.29.54-.1.77l-4.21,2.43A1.48,1.48,0,0,1,400.52,210.58Z"/><path class="cls-11" d="M407.09,214.37l-4.25-2.45c-.34-.2-.3-.54.09-.77l4.22-2.43a1.49,1.49,0,0,1,1.33-.06l4.25,2.46c.34.19.3.54-.09.77l-4.22,2.43A1.46,1.46,0,0,1,407.09,214.37Z"/><path class="cls-11" d="M413.66,218.17l-4.25-2.46c-.35-.2-.3-.54.09-.77l4.21-2.43a1.51,1.51,0,0,1,1.34-.06l4.25,2.46c.34.2.3.54-.1.77L415,218.11A1.49,1.49,0,0,1,413.66,218.17Z"/><path class="cls-11" d="M420.22,222,416,219.5c-.34-.2-.3-.54.1-.77l4.21-2.43a1.46,1.46,0,0,1,1.33-.05l4.26,2.45c.34.2.29.54-.1.77l-4.21,2.43A1.51,1.51,0,0,1,420.22,222Z"/><path class="cls-11" d="M426.79,225.75l-4.25-2.46c-.34-.19-.3-.54.09-.77l4.22-2.43a1.46,1.46,0,0,1,1.33-.05l4.25,2.45c.34.2.3.54-.09.77l-4.22,2.43A1.46,1.46,0,0,1,426.79,225.75Z"/><path class="cls-11" d="M433.36,229.54l-4.25-2.46c-.35-.19-.3-.54.09-.76l4.21-2.44a1.51,1.51,0,0,1,1.34,0l4.25,2.45c.34.2.3.54-.1.77l-4.21,2.43A1.46,1.46,0,0,1,433.36,229.54Z"/><path class="cls-11" d="M383.93,193.62l-4.25-2.45c-.34-.2-.3-.54.1-.77L384,188a1.46,1.46,0,0,1,1.33-.06l4.25,2.46c.35.19.3.54-.09.77l-4.21,2.43A1.48,1.48,0,0,1,383.93,193.62Z"/><path class="cls-11" d="M377.27,189.78,373,187.32c-.34-.2-.3-.54.09-.77l4.22-2.43a1.49,1.49,0,0,1,1.33-.06l4.25,2.46c.34.2.3.54-.1.77l-4.21,2.43A1.49,1.49,0,0,1,377.27,189.78Z"/><path class="cls-11" d="M370.59,185.92l-9.15-5.29c-.35-.19-.3-.54.09-.77l4.21-2.43a1.48,1.48,0,0,1,1.34-.05l9.15,5.28c.35.2.3.55-.09.77l-4.21,2.44A1.51,1.51,0,0,1,370.59,185.92Z"/><path class="cls-11" d="M375.26,181.23l-7.43-4.29c-.34-.19-.3-.54.09-.77l4.22-2.43a1.46,1.46,0,0,1,1.33-.05L380.9,178c.34.19.3.54-.1.77l-4.21,2.43A1.46,1.46,0,0,1,375.26,181.23Z"/><path class="cls-11" d="M390.5,197.41,386.25,195c-.34-.2-.3-.54.09-.77l4.22-2.43a1.49,1.49,0,0,1,1.33-.06l4.25,2.46c.34.19.3.54-.09.77l-4.22,2.43A1.46,1.46,0,0,1,390.5,197.41Z"/><path class="cls-11" d="M397.07,201.21l-4.26-2.46c-.34-.2-.29-.54.1-.77l4.21-2.43a1.51,1.51,0,0,1,1.34-.06l4.25,2.46c.34.2.3.54-.1.77l-4.21,2.43A1.49,1.49,0,0,1,397.07,201.21Z"/><path class="cls-11" d="M403.63,205l-4.25-2.46c-.34-.2-.3-.54.1-.77l4.21-2.43a1.46,1.46,0,0,1,1.33-.05l4.25,2.45c.35.2.3.54-.09.77L405,204.94A1.51,1.51,0,0,1,403.63,205Z"/><path class="cls-11" d="M410.2,208.79,406,206.33c-.34-.19-.3-.54.09-.77l4.22-2.43a1.46,1.46,0,0,1,1.33,0l4.25,2.45c.34.2.3.54-.09.77l-4.22,2.43A1.46,1.46,0,0,1,410.2,208.79Z"/><path class="cls-11" d="M416.77,212.58l-4.26-2.46c-.34-.19-.29-.54.1-.76l4.21-2.44a1.51,1.51,0,0,1,1.34,0l4.25,2.45c.34.2.3.54-.1.77l-4.21,2.43A1.46,1.46,0,0,1,416.77,212.58Z"/><path class="cls-11" d="M423.33,216.37l-4.25-2.45c-.34-.2-.3-.55.1-.77l4.21-2.44a1.49,1.49,0,0,1,1.33-.05l4.25,2.45c.35.2.3.55-.09.77l-4.21,2.44A1.51,1.51,0,0,1,423.33,216.37Z"/><path class="cls-11" d="M429.9,220.16l-4.25-2.45c-.34-.2-.3-.54.09-.77l4.22-2.43a1.46,1.46,0,0,1,1.33-.06l4.25,2.46c.34.19.3.54-.09.76l-4.22,2.44A1.49,1.49,0,0,1,429.9,220.16Z"/><path class="cls-11" d="M436.47,224l-4.26-2.45c-.34-.2-.29-.54.1-.77l4.21-2.43a1.48,1.48,0,0,1,1.34-.06l4.25,2.46c.34.19.3.54-.1.77l-4.21,2.43A1.46,1.46,0,0,1,436.47,224Z"/><path class="cls-11" d="M443,227.74l-4.25-2.45c-.34-.2-.3-.54.1-.77l4.21-2.43a1.49,1.49,0,0,1,1.33-.06l4.25,2.46c.35.19.3.54-.09.77l-4.21,2.43A1.48,1.48,0,0,1,443,227.74Z"/><path class="cls-11" d="M454.71,234.48l-9.28-5.35c-.34-.2-.3-.54.09-.77l4.22-2.43a1.46,1.46,0,0,1,1.33-.06l9.28,5.36c.34.19.3.54-.1.77L456,234.43A1.46,1.46,0,0,1,454.71,234.48Z"/><path class="cls-11" d="M467.49,227.1l-7.83-4.52c-.34-.2-.3-.54.1-.77l4.21-2.43a1.46,1.46,0,0,1,1.33,0l7.83,4.52c.34.19.3.54-.09.77l-4.22,2.43A1.46,1.46,0,0,1,467.49,227.1Z"/><path class="cls-11" d="M402,196.67l-4.25-2.45c-.34-.2-.3-.54.09-.77l4.22-2.43a1.46,1.46,0,0,1,1.33-.06l4.25,2.46c.34.19.3.54-.09.76l-4.22,2.44A1.46,1.46,0,0,1,402,196.67Z"/><path class="cls-11" d="M395.27,192.79,391,190.33c-.34-.2-.3-.54.09-.77l4.22-2.43a1.46,1.46,0,0,1,1.33,0l4.25,2.45c.34.2.3.54-.09.77l-4.22,2.43A1.49,1.49,0,0,1,395.27,192.79Z"/><path class="cls-11" d="M388.54,188.9l-4.25-2.45c-.34-.2-.3-.54.09-.77l4.22-2.43a1.46,1.46,0,0,1,1.33-.06l4.25,2.45c.34.2.3.55-.09.77l-4.22,2.44A1.49,1.49,0,0,1,388.54,188.9Z"/><path class="cls-11" d="M381.81,185l-4.25-2.46c-.34-.2-.3-.54.09-.77l4.22-2.43a1.49,1.49,0,0,1,1.33-.06l4.25,2.46c.34.2.3.54-.09.77L383.14,185A1.49,1.49,0,0,1,381.81,185Z"/><path class="cls-11" d="M408.57,200.46,404.31,198c-.34-.2-.29-.54.1-.77l4.21-2.43a1.51,1.51,0,0,1,1.34-.06l4.25,2.46c.34.19.3.54-.1.77l-4.21,2.43A1.46,1.46,0,0,1,408.57,200.46Z"/><path class="cls-11" d="M415.13,204.26l-4.25-2.46c-.34-.2-.3-.54.1-.77l4.21-2.43a1.49,1.49,0,0,1,1.33-.06l4.25,2.46c.35.2.3.54-.09.77l-4.21,2.43A1.51,1.51,0,0,1,415.13,204.26Z"/><path class="cls-11" d="M421.7,208.05l-4.25-2.46c-.34-.2-.3-.54.09-.77l4.22-2.43a1.49,1.49,0,0,1,1.33-.06l4.25,2.46c.34.2.3.54-.1.77L423,208A1.49,1.49,0,0,1,421.7,208.05Z"/><path class="cls-11" d="M428.27,211.84,424,209.38c-.34-.19-.29-.54.1-.77l4.21-2.43a1.48,1.48,0,0,1,1.34-.05l4.25,2.45c.34.2.3.54-.1.77l-4.21,2.43A1.49,1.49,0,0,1,428.27,211.84Z"/><path class="cls-11" d="M434.83,215.63l-4.25-2.46c-.34-.19-.3-.54.1-.77l4.21-2.43a1.46,1.46,0,0,1,1.33-.05l4.25,2.45c.35.2.3.54-.09.77l-4.22,2.43A1.46,1.46,0,0,1,434.83,215.63Z"/><path class="cls-11" d="M441.4,219.42,437.15,217c-.34-.2-.3-.55.09-.77l4.22-2.44a1.49,1.49,0,0,1,1.33,0l4.25,2.45c.34.2.3.54-.1.77l-4.21,2.43A1.46,1.46,0,0,1,441.4,219.42Z"/><path class="cls-11" d="M448,223.21l-4.26-2.45c-.34-.2-.29-.55.1-.77l4.21-2.44a1.49,1.49,0,0,1,1.33-.05l4.26,2.45c.34.2.3.55-.1.77l-4.21,2.44A1.49,1.49,0,0,1,448,223.21Z"/><path class="cls-11" d="M454.53,227l-4.25-2.45c-.34-.2-.3-.54.1-.77l4.21-2.43a1.46,1.46,0,0,1,1.33-.06l4.25,2.46c.34.19.3.54-.09.76L455.86,227A1.49,1.49,0,0,1,454.53,227Z"/><path class="cls-11" d="M461.1,230.79l-4.25-2.45c-.34-.2-.3-.54.09-.77l4.22-2.43a1.46,1.46,0,0,1,1.33-.06l4.25,2.46c.34.19.3.54-.1.77l-4.21,2.43A1.46,1.46,0,0,1,461.1,230.79Z"/><path class="cls-11" d="M398.54,187.3l-4.25-2.46c-.34-.2-.3-.54.1-.77l4.21-2.43a1.49,1.49,0,0,1,1.33-.06l4.25,2.46c.34.2.3.54-.09.77l-4.22,2.43A1.49,1.49,0,0,1,398.54,187.3Z"/><path class="cls-11" d="M392,183.52l-4.25-2.45c-.35-.2-.3-.54.09-.77l4.21-2.43a1.48,1.48,0,0,1,1.34-.06l4.25,2.46c.34.19.3.54-.1.77l-4.21,2.43A1.46,1.46,0,0,1,392,183.52Z"/><path class="cls-11" d="M385.47,179.75l-4.25-2.45c-.34-.2-.3-.55.1-.77l4.21-2.44a1.49,1.49,0,0,1,1.33-.05l4.26,2.45c.34.2.29.55-.1.77l-4.21,2.44A1.51,1.51,0,0,1,385.47,179.75Z"/><path class="cls-11" d="M378.94,176l-4.25-2.46c-.34-.19-.3-.54.09-.77l4.22-2.43a1.46,1.46,0,0,1,1.33,0l4.25,2.45c.34.2.3.54-.09.77l-4.22,2.43A1.46,1.46,0,0,1,378.94,176Z"/><path class="cls-11" d="M385.66,172.1l-4.25-2.46c-.34-.19-.3-.54.09-.77l1.4-.8a1.46,1.46,0,0,1,1.33,0l4.25,2.45c.34.2.3.54-.1.77L387,172A1.46,1.46,0,0,1,385.66,172.1Z"/><path class="cls-11" d="M394.19,177l-4.26-2.45c-.34-.2-.29-.54.1-.77l1.39-.81a1.49,1.49,0,0,1,1.33-.05l4.26,2.45c.34.2.3.54-.1.77l-1.39.81A1.49,1.49,0,0,1,394.19,177Z"/><path class="cls-11" d="M400.69,180.78l-4.25-2.46c-.34-.19-.3-.54.1-.77l1.39-.8a1.46,1.46,0,0,1,1.33-.05l4.25,2.45c.34.2.3.54-.09.77l-1.4.8A1.46,1.46,0,0,1,400.69,180.78Z"/><path class="cls-11" d="M407.2,184.54,403,182.08c-.34-.2-.3-.54.09-.77l1.4-.8a1.46,1.46,0,0,1,1.33-.06l4.25,2.46c.34.19.3.54-.1.77l-1.39.8A1.49,1.49,0,0,1,407.2,184.54Z"/><path class="cls-11" d="M413.71,188.29l-4.26-2.45c-.34-.2-.29-.54.1-.77l1.39-.81a1.49,1.49,0,0,1,1.33,0l4.26,2.45c.34.2.3.54-.1.77l-1.39.81A1.49,1.49,0,0,1,413.71,188.29Z"/><path class="cls-11" d="M450,209.26l-4.25-2.45c-.34-.2-.3-.54.1-.77l1.39-.8a1.46,1.46,0,0,1,1.33-.06l4.25,2.46c.34.19.3.54-.09.77l-1.4.8A1.46,1.46,0,0,1,450,209.26Z"/><path class="cls-11" d="M456.54,213l-4.25-2.45c-.34-.2-.3-.55.09-.77l1.4-.81a1.49,1.49,0,0,1,1.33-.05l4.25,2.45c.34.2.3.54-.1.77l-1.39.81A1.49,1.49,0,0,1,456.54,213Z"/><path class="cls-11" d="M463.05,216.78l-4.26-2.46c-.34-.19-.3-.54.1-.77l1.39-.8a1.49,1.49,0,0,1,1.33-.06l4.26,2.46c.34.2.29.54-.1.77l-1.39.8A1.46,1.46,0,0,1,463.05,216.78Z"/><path class="cls-11" d="M469.55,220.53l-4.25-2.45c-.34-.2-.3-.54.1-.77l1.39-.8a1.46,1.46,0,0,1,1.33-.06l4.25,2.46c.34.19.3.54-.09.77l-1.4.8A1.46,1.46,0,0,1,469.55,220.53Z"/><path class="cls-11" d="M405.11,191.09l-4.25-2.46c-.34-.2-.3-.54.09-.77l4.22-2.43a1.49,1.49,0,0,1,1.33-.06l4.25,2.46c.34.2.3.54-.1.77L406.44,191A1.49,1.49,0,0,1,405.11,191.09Z"/><path class="cls-11" d="M411.68,194.88l-4.26-2.46c-.34-.19-.3-.54.1-.77l4.21-2.43a1.46,1.46,0,0,1,1.33-.05l4.26,2.45c.34.2.29.54-.1.77L413,194.82A1.49,1.49,0,0,1,411.68,194.88Z"/><path class="cls-11" d="M418.24,198.67,414,196.21c-.34-.19-.3-.54.1-.77L418.3,193a1.46,1.46,0,0,1,1.33,0l4.25,2.45c.34.2.3.54-.09.77l-4.22,2.43A1.46,1.46,0,0,1,418.24,198.67Z"/><path class="cls-11" d="M424.81,202.46,420.56,200c-.34-.2-.3-.55.09-.77l4.22-2.44a1.49,1.49,0,0,1,1.33-.05l4.25,2.45c.34.2.3.54-.1.77l-4.21,2.43A1.46,1.46,0,0,1,424.81,202.46Z"/><path class="cls-11" d="M431.38,206.25l-4.26-2.45c-.34-.2-.3-.54.1-.77l4.21-2.44a1.49,1.49,0,0,1,1.33-.05L437,203c.34.2.29.55-.1.77l-4.21,2.44A1.49,1.49,0,0,1,431.38,206.25Z"/><path class="cls-11" d="M437.94,210l-4.25-2.45c-.34-.2-.3-.54.1-.77l4.21-2.43a1.46,1.46,0,0,1,1.33-.06l4.25,2.46c.34.19.3.54-.09.76L439.27,210A1.46,1.46,0,0,1,437.94,210Z"/><path class="cls-11" d="M444.51,213.83l-4.25-2.45c-.35-.2-.3-.54.09-.77l4.22-2.43a1.49,1.49,0,0,1,1.33-.06l4.25,2.46c.34.19.3.54-.1.77l-4.21,2.43A1.46,1.46,0,0,1,444.51,213.83Z"/><path class="cls-11" d="M451.08,217.63l-4.26-2.46c-.34-.2-.3-.54.1-.77l4.21-2.43a1.49,1.49,0,0,1,1.33-.06l4.26,2.46c.34.2.29.54-.1.77l-4.21,2.43A1.49,1.49,0,0,1,451.08,217.63Z"/><path class="cls-11" d="M457.64,221.42,453.39,219c-.34-.2-.3-.54.1-.77l4.21-2.43a1.49,1.49,0,0,1,1.33-.06l4.25,2.46c.34.2.3.54-.09.77L459,221.36A1.49,1.49,0,0,1,457.64,221.42Z"/><path class="cls-11" d="M367.57,191.55,355,184.32c-.34-.19-.3-.54.1-.76l4.21-2.44a1.49,1.49,0,0,1,1.33-.05l12.53,7.23c.34.19.3.54-.1.77l-4.21,2.43A1.46,1.46,0,0,1,367.57,191.55Z"/><path class="cls-11" d="M448.24,238.13l-12.52-7.23c-.35-.2-.3-.54.09-.77L440,227.7a1.51,1.51,0,0,1,1.34-.06l12.52,7.23c.34.2.3.55-.1.77l-4.21,2.44A1.49,1.49,0,0,1,448.24,238.13Z"/><path class="cls-11" d="M422,231.34l-4.25-2.45c-.35-.2-.3-.54.09-.77l5-2.9a1.46,1.46,0,0,1,1.33-.05l4.25,2.45c.35.2.3.54-.09.77l-5,2.9A1.46,1.46,0,0,1,422,231.34Z"/><path class="cls-11" d="M374.29,203.81l-6.8-3.92c-.34-.2-.3-.55.1-.77l5-2.9a1.49,1.49,0,0,1,1.33-.06l6.8,3.93c.34.2.3.54-.1.77l-5,2.9A1.49,1.49,0,0,1,374.29,203.81Z"/><path class="cls-11" d="M415.65,227.69l-6.8-3.93c-.34-.19-.3-.54.1-.76l5-2.9a1.49,1.49,0,0,1,1.33-.06l6.8,3.93c.34.2.3.54-.1.77l-5,2.9A1.49,1.49,0,0,1,415.65,227.69Z"/><path class="cls-11" d="M383.77,209.28,377,205.36c-.34-.2-.29-.55.1-.77l5-2.9a1.49,1.49,0,0,1,1.33-.06l6.8,3.93c.34.2.3.54-.09.77l-5,2.9A1.49,1.49,0,0,1,383.77,209.28Z"/><path class="cls-11" d="M383.46,201.66,413,218.73a.41.41,0,0,1,0,.77l-5.11,2.95a1.48,1.48,0,0,1-1.33,0L377,205.38Z"/><path class="cls-11" d="M440.33,238.22l4.74,2.73c.28.16.24.45-.08.63l-2.05,1.19a1.26,1.26,0,0,1-1.1,0l-4.73-2.73c-.28-.16-.25-.45.08-.63l2.05-1.19A1.23,1.23,0,0,1,440.33,238.22Z"/><path class="cls-11" d="M433.71,234.39l4.74,2.74c.28.16.24.44-.08.63L436.31,239a1.23,1.23,0,0,1-1.09,0l-4.73-2.73c-.28-.17-.25-.45.07-.63l2.06-1.19A1.2,1.2,0,0,1,433.71,234.39Z"/><path class="cls-11" d="M427.14,230.6l4.74,2.74c.28.16.24.44-.08.63l-2.05,1.18a1.21,1.21,0,0,1-1.09,0l-4.74-2.74c-.28-.16-.25-.44.08-.63l2.05-1.18A1.2,1.2,0,0,1,427.14,230.6Z"/><path class="cls-11" d="M437.34,232.3l4.73,2.74c.28.16.25.44-.08.63l-2.05,1.18a1.2,1.2,0,0,1-1.09.05l-4.74-2.74c-.28-.16-.24-.44.08-.63l2.05-1.18A1.23,1.23,0,0,1,437.34,232.3Z"/></g><path class="cls-8" d="M504.33,130.13a1.93,1.93,0,0,1-1-.28,2.9,2.9,0,0,1-1.39-2.93,1.45,1.45,0,0,1,.83-1.06,1.77,1.77,0,0,1,1.58.17,2.92,2.92,0,0,1,1.39,2.93,1.47,1.47,0,0,1-.84,1A1.43,1.43,0,0,1,504.33,130.13Zm-1-3.93a.94.94,0,0,0-.41.08,1,1,0,0,0-.57.74,2.41,2.41,0,0,0,1.18,2.43,1.3,1.3,0,0,0,1.16.15,1,1,0,0,0,.57-.75,2.42,2.42,0,0,0-1.17-2.43A1.53,1.53,0,0,0,503.37,126.2Z"/><path class="cls-8" d="M509.74,133.26a2,2,0,0,1-1-.29,2.91,2.91,0,0,1-1.39-2.93,1.46,1.46,0,0,1,.84-1,1.72,1.72,0,0,1,1.57.16,2.9,2.9,0,0,1,1.39,2.93,1.47,1.47,0,0,1-.83,1.06A1.45,1.45,0,0,1,509.74,133.26Zm-1-3.94a1.06,1.06,0,0,0-.4.08,1,1,0,0,0-.57.75,2.4,2.4,0,0,0,1.17,2.43,1.29,1.29,0,0,0,1.17.14,1,1,0,0,0,.57-.74,2.42,2.42,0,0,0-1.18-2.43A1.52,1.52,0,0,0,508.78,129.32Z"/><path class="cls-8" d="M516.35,135.16a1.29,1.29,0,0,1-2.07.74,2.64,2.64,0,0,1-1.28-2.68,1.29,1.29,0,0,1,2.07-.74A2.64,2.64,0,0,1,516.35,135.16Z"/><polygon class="cls-8" points="412.54 75.41 409.64 73.74 409.87 72.4 412.76 74.08 412.54 75.41"/><polygon class="cls-8" points="416.75 77.84 413.85 76.17 414.07 74.83 416.97 76.5 416.75 77.84"/><polygon class="cls-8" points="408.37 73.01 402.02 69.34 402.25 68 408.6 71.67 408.37 73.01"/><polygon class="cls-8" points="409.17 98.27 404.32 95.47 404.51 94.36 409.36 97.15 409.17 98.27"/><polygon class="cls-8" points="413.31 100.66 410.88 99.26 411.07 98.14 413.49 99.54 413.31 100.66"/><polygon class="cls-8" points="410.16 101.73 408.1 100.53 408.28 99.41 410.35 100.61 410.16 101.73"/><polygon class="cls-8" points="413.62 103.72 411.2 102.32 411.38 101.2 413.81 102.6 413.62 103.72"/><polygon class="cls-8" points="417.18 108.66 407.65 103.16 407.84 102.04 417.37 107.54 417.18 108.66"/><polygon class="cls-8" points="408.92 130.65 399.4 125.15 399.59 124.03 409.11 129.53 408.92 130.65"/><polygon class="cls-8" points="412.58 132.76 410.16 131.36 410.35 130.24 412.77 131.64 412.58 132.76"/><polygon class="cls-8" points="409.28 106.98 407.21 105.79 407.4 104.67 409.47 105.86 409.28 106.98"/><polygon class="cls-8" points="412.74 108.98 410.31 107.58 410.5 106.46 412.93 107.86 412.74 108.98"/><polygon class="cls-8" points="412.01 111.44 406.77 108.41 406.96 107.29 412.2 110.32 412.01 111.44"/><polygon class="cls-8" points="415.51 113.46 413.09 112.06 413.28 110.94 415.7 112.34 415.51 113.46"/><polygon class="cls-8" points="419.04 115.49 416.61 114.09 416.8 112.97 419.22 114.37 419.04 115.49"/><polygon class="cls-8" points="424.72 118.78 420.14 116.13 420.32 115.01 424.91 117.66 424.72 118.78"/><polygon class="cls-8" points="421.09 122.44 418.67 121.04 418.86 119.92 421.28 121.32 421.09 122.44"/><polygon class="cls-8" points="426.78 125.72 422.19 123.08 422.38 121.96 426.96 124.61 426.78 125.72"/><polygon class="cls-8" points="408.32 115.07 405.89 113.67 406.08 112.55 408.5 113.95 408.32 115.07"/><polygon class="cls-8" points="411.84 117.1 409.42 115.7 409.6 114.58 412.03 115.98 411.84 117.1"/><polygon class="cls-8" points="417.52 120.38 412.94 117.73 413.13 116.61 417.71 119.26 417.52 120.38"/><polygon class="cls-8" points="424.97 121.8 422.55 120.4 422.74 119.28 425.16 120.68 424.97 121.8"/><polygon class="cls-8" points="428.5 123.84 426.07 122.44 426.26 121.32 428.68 122.72 428.5 123.84"/><polygon class="cls-8" points="434.18 127.12 429.6 124.47 429.78 123.35 434.37 126 434.18 127.12"/><polygon class="cls-8" points="416.38 134.95 413.95 133.55 414.14 132.43 416.56 133.83 416.38 134.95"/><polygon class="cls-8" points="422.06 138.24 417.48 135.59 417.66 134.47 422.25 137.11 422.06 138.24"/><polygon class="cls-8" points="407.44 120.32 405.01 118.92 405.2 117.8 407.62 119.2 407.44 120.32"/><polygon class="cls-8" points="413.12 123.6 408.54 120.95 408.72 119.83 413.31 122.48 413.12 123.6"/><polygon class="cls-8" points="419.02 139.36 416.59 137.96 416.78 136.84 419.2 138.24 419.02 139.36"/><polygon class="cls-8" points="424.7 142.64 420.12 139.99 420.3 138.87 424.89 141.52 424.7 142.64"/><polygon class="cls-8" points="424.42 112.84 422 111.44 422.19 110.32 424.61 111.72 424.42 112.84"/><polygon class="cls-8" points="420.76 110.73 418.33 109.33 418.52 108.21 420.95 109.61 420.76 110.73"/><polygon class="cls-8" points="430.11 116.12 425.52 113.48 425.71 112.36 430.3 115 430.11 116.12"/><polygon class="cls-8" points="408.52 112.3 406.33 111.04 406.52 109.92 408.71 111.18 408.52 112.3"/><polygon class="cls-8" points="415 116.05 409.69 112.98 409.88 111.86 415.19 114.93 415 116.05"/><polygon class="cls-8" points="421.49 119.79 416.17 116.72 416.36 115.6 421.67 118.67 421.49 119.79"/><polygon class="cls-8" points="433.48 118.07 431.29 116.81 431.48 115.69 433.66 116.95 433.48 118.07"/><polygon class="cls-8" points="439.96 121.81 434.64 118.74 434.83 117.62 440.15 120.69 439.96 121.81"/><polygon class="cls-8" points="446.44 125.55 441.13 122.49 441.31 121.36 446.63 124.43 446.44 125.55"/><polygon class="cls-8" points="410.81 119.39 405.5 116.32 405.69 115.2 411 118.27 410.81 119.39"/><polygon class="cls-8" points="413.62 121.01 411.98 120.06 412.17 118.94 413.8 119.89 413.62 121.01"/><polygon class="cls-8" points="416.42 122.63 414.79 121.69 414.98 120.57 416.61 121.51 416.42 122.63"/><polygon class="cls-8" points="421.61 125.63 417.6 123.31 417.79 122.19 421.8 124.5 421.61 125.63"/><polygon class="cls-8" points="427.43 120.34 425.8 119.4 425.99 118.28 427.62 119.22 427.43 120.34"/><polygon class="cls-8" points="432.62 123.34 428.61 121.02 428.79 119.9 432.81 122.22 432.62 123.34"/><polygon class="cls-8" points="433.71 123.97 429.7 121.65 429.88 120.53 433.9 122.85 433.71 123.97"/><polygon class="cls-8" points="412.34 138.38 407.1 135.36 407.29 134.24 412.52 137.26 412.34 138.38"/><polygon class="cls-8" points="415.84 140.41 413.42 139.01 413.61 137.89 416.03 139.28 415.84 140.41"/><polygon class="cls-8" points="419.36 142.44 416.94 141.04 417.13 139.92 419.55 141.32 419.36 142.44"/><polygon class="cls-8" points="425.05 145.72 420.46 143.07 420.65 141.95 425.24 144.6 425.05 145.72"/><polygon class="cls-8" points="428.68 147.82 426.26 146.42 426.45 145.3 428.87 146.7 428.68 147.82"/><polygon class="cls-8" points="434.37 151.1 429.78 148.46 429.97 147.34 434.56 149.98 434.37 151.1"/><polygon class="cls-8" points="416.93 146.8 414.51 145.4 414.69 144.28 417.12 145.68 416.93 146.8"/><polygon class="cls-8" points="422.62 150.08 418.03 147.43 418.22 146.31 422.8 148.96 422.62 150.08"/><polygon class="cls-8" points="404.27 139.49 401.85 138.09 402.04 136.97 404.46 138.37 404.27 139.49"/><polygon class="cls-8" points="407.8 141.52 405.37 140.12 405.56 139 407.98 140.4 407.8 141.52"/><polygon class="cls-8" points="413.48 144.81 408.89 142.16 409.08 141.04 413.67 143.69 413.48 144.81"/><polygon class="cls-8" points="408.85 139.25 406.66 137.99 406.85 136.87 409.03 138.13 408.85 139.25"/><polygon class="cls-8" points="415.33 142.99 410.02 139.92 410.2 138.8 415.52 141.87 415.33 142.99"/><polygon class="cls-8" points="421.81 146.74 416.5 143.67 416.69 142.55 422 145.62 421.81 146.74"/><polygon class="cls-8" points="402.48 141.34 397.17 138.27 397.36 137.15 402.67 140.22 402.48 141.34"/><polygon class="cls-8" points="405.29 142.96 403.65 142.01 403.84 140.89 405.47 141.84 405.29 142.96"/><polygon class="cls-8" points="408.09 144.58 406.46 143.63 406.65 142.51 408.28 143.46 408.09 144.58"/><polygon class="cls-8" points="413.28 147.57 409.27 145.25 409.46 144.13 413.47 146.45 413.28 147.57"/><polygon class="cls-8" points="414.37 148.2 410.36 145.88 410.55 144.76 414.56 147.08 414.37 148.2"/><polygon class="cls-8" points="404.88 131.19 403.25 130.25 403.43 129.13 405.06 130.07 404.88 131.19"/><polygon class="cls-8" points="410.07 134.19 406.05 131.87 406.24 130.75 410.26 133.07 410.07 134.19"/><polygon class="cls-8" points="415.37 137.25 411.36 134.94 411.54 133.81 415.56 136.13 415.37 137.25"/><polygon class="cls-8" points="435.81 154.81 433.38 153.41 433.57 152.29 435.99 153.69 435.81 154.81"/><polygon class="cls-8" points="441.49 158.1 436.91 155.45 437.09 154.33 441.68 156.98 441.49 158.1"/><polygon class="cls-8" points="426.86 149.65 422.84 147.33 423.03 146.21 427.05 148.53 426.86 149.65"/><polygon class="cls-8" points="432.16 152.71 428.15 150.39 428.33 149.27 432.35 151.59 432.16 152.71"/><polygon class="cls-8" points="402.04 120.09 400.41 119.14 400.59 118.02 402.23 118.97 402.04 120.09"/><polygon class="cls-8" points="407.23 123.08 403.21 120.77 403.4 119.64 407.42 121.96 407.23 123.08"/><polygon class="cls-8" points="412.53 126.14 408.52 123.83 408.7 122.71 412.72 125.02 412.53 126.14"/><path class="cls-8" d="M492.65,167a2.27,2.27,0,0,1-1.12-.32l-32.46-18.74a4.47,4.47,0,0,1-1.91-4.32l2.08-12.38a2.29,2.29,0,0,1,1.19-1.78,2,2,0,0,1,1.87.16l32.46,18.74a4.46,4.46,0,0,1,1.91,4.31L494.59,165a2.29,2.29,0,0,1-1.19,1.78A1.65,1.65,0,0,1,492.65,167Zm-31.47-37.25a1.31,1.31,0,0,0-.56.12,1.84,1.84,0,0,0-.93,1.45l-2.08,12.38a4,4,0,0,0,1.69,3.84l32.45,18.74a1.58,1.58,0,0,0,1.46.14,1.83,1.83,0,0,0,.93-1.44l2.08-12.39a4,4,0,0,0-1.69-3.84L462.08,130A1.88,1.88,0,0,0,461.18,129.73Z"/><path class="cls-8" d="M489.08,188.26a2.27,2.27,0,0,1-1.12-.32L455.5,169.2a4.47,4.47,0,0,1-1.91-4.32l2.08-12.38a2.29,2.29,0,0,1,1.19-1.78,2,2,0,0,1,1.88.16l32.45,18.74a4.45,4.45,0,0,1,1.91,4.31L491,186.31a2.29,2.29,0,0,1-1.19,1.78A1.75,1.75,0,0,1,489.08,188.26Zm-.89-.72a1.56,1.56,0,0,0,1.45.14,1.86,1.86,0,0,0,.94-1.44l2.07-12.39A4,4,0,0,0,491,170l-32.45-18.74a1.58,1.58,0,0,0-1.46-.14,1.84,1.84,0,0,0-.93,1.45L454,165a4,4,0,0,0,1.69,3.84Z"/><path class="cls-23" d="M462,146.58c.57.34,1.08.21,1.27-.31l3.79-10.34c.43-1.18,2.2-.11,2.57,1.56L472,147.9a3.06,3.06,0,0,0,1.29,1.86l.56.32c.54.31,1,.22,1.24-.23l.77-1.63c.48-1,2.08-.06,2.51,1.5h0a3,3,0,0,0,1.26,1.73l.49.28c.59.34,1.11.2,1.29-.34l.7-2.16c.4-1.22,2.17-.21,2.57,1.47l2.34,9.64a3,3,0,0,0,1.3,1.83Z"/><path class="cls-8" d="M484.16,183.36a3.24,3.24,0,0,1-1.41-2l-2.34-9.64a2.37,2.37,0,0,0-1.65-1.84.47.47,0,0,0-.48.38l-.7,2.16a1,1,0,0,1-.56.63,1.25,1.25,0,0,1-1.06-.15l-.49-.29a3.23,3.23,0,0,1-1.37-1.86,2.32,2.32,0,0,0-1.6-1.75.43.43,0,0,0-.48.28l-.77,1.63a.89.89,0,0,1-.55.51,1.28,1.28,0,0,1-1-.18l-.56-.32a3.26,3.26,0,0,1-1.4-2l-2.33-10.41a2.39,2.39,0,0,0-1.65-1.87.47.47,0,0,0-.49.35l-3.78,10.34a1,1,0,0,1-.56.59,1.26,1.26,0,0,1-1-.16l.22-.4a.83.83,0,0,0,.67.13.5.5,0,0,0,.28-.32l3.79-10.34a.9.9,0,0,1,.94-.65,2.77,2.77,0,0,1,2.06,2.23l2.34,10.41a2.8,2.8,0,0,0,1.18,1.72l.56.32a.85.85,0,0,0,.64.13.45.45,0,0,0,.28-.26l.77-1.63a.9.9,0,0,1,.93-.55,2.75,2.75,0,0,1,2,2.08,2.79,2.79,0,0,0,1.16,1.6l.49.28a.77.77,0,0,0,.66.12.46.46,0,0,0,.29-.34l.71-2.16a.9.9,0,0,1,.88-.69h0a2.75,2.75,0,0,1,2.09,2.18l2.33,9.64a2.81,2.81,0,0,0,1.2,1.69Z"/><path class="cls-8" d="M471.14,119.19a2.85,2.85,0,0,1-1.42-.41l-25.37-14.65a4.51,4.51,0,0,1-2-4.86,2.72,2.72,0,0,1,1.55-1.87,2.61,2.61,0,0,1,2.32.23l25.37,14.65a4.5,4.5,0,0,1,1.95,4.86A2.68,2.68,0,0,1,472,119,2.33,2.33,0,0,1,471.14,119.19Zm-26.3-21.51a1.83,1.83,0,0,0-.73.15,2.26,2.26,0,0,0-1.28,1.56,4.07,4.07,0,0,0,1.74,4.35L470,118.39a2.17,2.17,0,0,0,1.92.2,2.28,2.28,0,0,0,1.28-1.57,4,4,0,0,0-1.74-4.34L446,98A2.36,2.36,0,0,0,444.84,97.68Z"/></g></g></g></svg>