<svg xmlns="http://www.w3.org/2000/svg" xmlns:xlink="http://www.w3.org/1999/xlink" viewBox="0 0 360.15 284.37"><defs><style>.cls-1{fill:none;}.cls-2{isolation:isolate;}.cls-3{opacity:0.67;}.cls-4{fill:#0f054c;}.cls-5{opacity:0.9;}.cls-6{fill:#080344;}.cls-7{fill:#42e8e0;}.cls-8{fill:url(#Áåçûìÿííûé_ãðàäèåíò_2);}.cls-9{fill:url(#Áåçûìÿííûé_ãðàäèåíò_24);}.cls-10{fill:#24126a;}.cls-11{opacity:0.51;}.cls-12{fill:#453c9e;}.cls-13{fill:url(#Áåçûìÿííûé_ãðàäèåíò_24-2);}.cls-14{fill:url(#Áåçûìÿííûé_ãðàäèåíò_2-2);}.cls-15{fill:#fff;}.cls-16{opacity:0.15;}.cls-17{clip-path:url(#clip-path);}.cls-18{fill:url(#Áåçûìÿííûé_ãðàäèåíò_24-3);}.cls-19{fill:url(#Áåçûìÿííûé_ãðàäèåíò_2-3);}.cls-20,.cls-22{opacity:0.5;}.cls-21{opacity:0.8;}.cls-22{mix-blend-mode:lighten;fill:url(#Áåçûìÿííûé_ãðàäèåíò_21);}</style><linearGradient id="Áåçûìÿííûé_ãðàäèåíò_2" x1="-205.17" y1="92.65" x2="-48.84" y2="92.65" gradientTransform="matrix(-1, 0, 0, 1, 90.99, 0)" gradientUnits="userSpaceOnUse"><stop offset="0" stop-color="#c0bff6"/><stop offset="0.29" stop-color="#c5c4f7"/><stop offset="0.64" stop-color="#d3d2f9"/><stop offset="1" stop-color="#e9e9fd"/></linearGradient><linearGradient id="Áåçûìÿííûé_ãðàäèåíò_24" x1="-205.16" y1="132.74" x2="-178.32" y2="132.74" gradientTransform="matrix(-1, 0, 0, 1, 90.99, 0)" gradientUnits="userSpaceOnUse"><stop offset="0" stop-color="#5761d7"/><stop offset="0.18" stop-color="#5c66d9"/><stop offset="0.39" stop-color="#6a73df"/><stop offset="0.61" stop-color="#8289e8"/><stop offset="0.85" stop-color="#a3a7f5"/><stop offset="1" stop-color="#bcbeff"/></linearGradient><linearGradient id="Áåçûìÿííûé_ãðàäèåíò_24-2" x1="-184.22" y1="176.48" x2="36.56" y2="176.48" xlink:href="#Áåçûìÿííûé_ãðàäèåíò_24"/><linearGradient id="Áåçûìÿííûé_ãðàäèåíò_2-2" x1="-282.31" y1="170.44" x2="43.02" y2="170.44" xlink:href="#Áåçûìÿííûé_ãðàäèåíò_2"/><clipPath id="clip-path"><polygon class="cls-1" points="292.42 81.85 156.47 3.39 139.38 104.95 275.25 183.36 292.42 81.85"/></clipPath><linearGradient id="Áåçûìÿííûé_ãðàäèåíò_24-3" x1="-269.12" y1="127.89" x2="-48.34" y2="127.89" xlink:href="#Áåçûìÿííûé_ãðàäèåíò_24"/><linearGradient id="Áåçûìÿííûé_ãðàäèåíò_2-3" x1="-194.94" y1="121.85" x2="25.96" y2="121.85" xlink:href="#Áåçûìÿííûé_ãðàäèåíò_2"/><linearGradient id="Áåçûìÿííûé_ãðàäèåíò_21" x1="378.04" y1="99.62" x2="424.68" y2="119.57" gradientTransform="translate(-148.43)" gradientUnits="userSpaceOnUse"><stop offset="0" stop-color="#42e8e0"/><stop offset="0.11" stop-color="#37b6bf"/><stop offset="0.22" stop-color="#2c87a1"/><stop offset="0.34" stop-color="#235f87"/><stop offset="0.46" stop-color="#1c3f72"/><stop offset="0.58" stop-color="#162561"/><stop offset="0.71" stop-color="#121355"/><stop offset="0.85" stop-color="#10084e"/><stop offset="1" stop-color="#0f054c"/></linearGradient></defs><title>Asset 1</title><g class="cls-2"><g id="Layer_2" data-name="Layer 2"><g id="Ñëîé_1" data-name="Ñëîé 1"><g class="cls-3"><polygon class="cls-4" points="168.79 284.38 0 186.92 168.79 89.47 337.58 186.93 168.79 284.38"/></g><g class="cls-3"><polygon class="cls-4" points="168.79 269.26 26.18 186.92 168.79 104.59 311.4 186.93 168.79 269.26"/></g><g class="cls-5"><polygon class="cls-6" points="168.79 251.7 56.59 186.92 168.79 122.15 280.99 186.93 168.79 251.7"/></g><path class="cls-7" d="M191.88,253.8a6.21,6.21,0,0,1-3-.77L54.9,175.7a2.52,2.52,0,0,1-1.45-2A2,2,0,0,1,54.54,172l79.93-46.15a5.94,5.94,0,0,1,5.43.21l134,77.33a2.49,2.49,0,0,1,1.45,2,2,2,0,0,1-1.09,1.66l-79.93,46.14A4.87,4.87,0,0,1,191.88,253.8ZM55.38,174.87,189.32,252.2a5.08,5.08,0,0,0,4.48.21l79.93-46.15a1.06,1.06,0,0,0,.62-.83c0-.4-.37-.85-1-1.2L139.43,126.89a5.08,5.08,0,0,0-4.48-.2L55,172.84a1,1,0,0,0-.62.82c0,.41.37.86,1,1.21Z"/><path class="cls-8" d="M139.86,102.37,156.79,1.92l-1.36-.58,2-1.17h0A1.46,1.46,0,0,1,159,.29L294.37,78.42a3.79,3.79,0,0,1,1.75,3.43L279.06,183.11a1.25,1.25,0,0,1-.72,1h0l-2,1.16-.34-1.87.11,0-134.5-77.65A3.81,3.81,0,0,1,139.86,102.37Z"/><path class="cls-9" d="M293.61,81.16l2.23-1a3,3,0,0,1,.28,1.67L279.06,183.11a1.25,1.25,0,0,1-.72,1h0l-2,1.16-.34-1.87.11,0-6.8-3.93Z"/><path class="cls-10" d="M139.49,107l135.32,78.12c1.05.61,1.94.26,2.12-.82L294,83.07a3.8,3.8,0,0,0-1.76-3.43L156.92,1.51c-1-.61-1.94-.26-2.12.82L137.73,103.59A3.85,3.85,0,0,0,139.49,107Z"/><g class="cls-11"><polygon class="cls-12" points="156.47 3.39 292.42 81.85 275.25 183.36 139.38 104.95 156.47 3.39"/></g><path class="cls-13" d="M54.43,155l7.38,3.86,74.05-42.75a5.36,5.36,0,0,1,4.84.2L268.41,190c1.22-.68,6.8-3.36,6.8-3.36L272.5,191h0a1.59,1.59,0,0,1-.75.83l-78,45a5.36,5.36,0,0,1-4.84-.2L58.22,161.24a2.33,2.33,0,0,1-1.1-1.17h0Z"/><path class="cls-14" d="M55.57,156.18l133.94,77.33a5.52,5.52,0,0,0,5,.21l79.93-46.15c1.27-.73,1.11-2-.36-2.86L140.1,107.38a5.52,5.52,0,0,0-5-.21L55.21,153.32C53.94,154.05,54.1,155.33,55.57,156.18Z"/><path class="cls-15" d="M55.57,155.58l133.94,77.33a5.52,5.52,0,0,0,5,.21L274.4,187a1.65,1.65,0,0,0,.8-.94,1.38,1.38,0,0,1-.8,1.54l-79.93,46.15a5.52,5.52,0,0,1-5-.21L55.57,156.18c-1-.55-1.34-1.28-1.16-1.93A2.24,2.24,0,0,0,55.57,155.58Z"/><g class="cls-16"><g class="cls-17"><path class="cls-18" d="M139.32,106.37l7.39,3.86,74-42.75a5.34,5.34,0,0,1,4.83.2l127.72,73.74c1.22-.69,6.79-3.37,6.79-3.37l-2.7,4.4h0a1.62,1.62,0,0,1-.76.84l-78,45a5.34,5.34,0,0,1-4.83-.2L143.12,112.65a2.33,2.33,0,0,1-1.1-1.17h0Z"/><path class="cls-19" d="M140.47,107.59l133.94,77.33a5.5,5.5,0,0,0,4.95.21L359.29,139c1.27-.73,1.11-2-.35-2.86L225,58.79a5.5,5.5,0,0,0-5-.21l-79.93,46.15C138.84,105.46,139,106.74,140.47,107.59Z"/><path class="cls-15" d="M358.94,136.12,225,58.79a5.78,5.78,0,0,0-3.31-.68,5.64,5.64,0,0,1,2.33.68L358,136.12c1.47.85,1.63,2.13.36,2.86l-79.93,46.15a4,4,0,0,1-1.65.46,4.7,4.7,0,0,0,2.63-.46L359.29,139C360.56,138.25,360.4,137,358.94,136.12Z"/><g class="cls-20"><path class="cls-10" d="M210.63,94.27l-4.3-2.47a1.42,1.42,0,0,0-1.3,0l-4.77,2.79c-.38.22-.4.56-.06.76l4.3,2.48a1.46,1.46,0,0,0,1.3,0L210.57,95C211,94.81,211,94.47,210.63,94.27Z"/><path class="cls-10" d="M217.26,98.1,213,95.62a1.45,1.45,0,0,0-1.3,0l-4.77,2.79c-.38.22-.4.56-.06.76l4.3,2.47a1.42,1.42,0,0,0,1.3,0l4.77-2.79C217.58,98.64,217.6,98.3,217.26,98.1Z"/><path class="cls-10" d="M223.89,101.93l-4.3-2.48a1.42,1.42,0,0,0-1.3,0l-4.77,2.79c-.38.22-.4.55-.06.75l4.3,2.48a1.42,1.42,0,0,0,1.3,0l4.77-2.79C224.21,102.47,224.23,102.13,223.89,101.93Z"/><path class="cls-10" d="M218.84,107l-4.29-2.48a1.44,1.44,0,0,0-1.31,0l-4,2.34c-.38.22-.4.56-.06.76l4.3,2.48a1.42,1.42,0,0,0,1.3,0l4-2.34C219.16,107.56,219.18,107.23,218.84,107Z"/><path class="cls-10" d="M225.47,110.85l-4.29-2.47a1.44,1.44,0,0,0-1.31,0l-4,2.34c-.38.22-.4.56-.06.76l4.3,2.48a1.42,1.42,0,0,0,1.3,0l4-2.34C225.79,111.39,225.81,111.05,225.47,110.85Z"/><path class="cls-10" d="M232.1,114.68l-4.29-2.48a1.44,1.44,0,0,0-1.31,0l-4,2.34c-.38.22-.4.56-.06.76l4.3,2.48a1.46,1.46,0,0,0,1.3,0l4-2.34C232.42,115.22,232.44,114.88,232.1,114.68Z"/><path class="cls-10" d="M238.73,118.51,234.44,116a1.44,1.44,0,0,0-1.31,0l-4,2.34c-.38.22-.4.56-.06.76l4.3,2.47a1.42,1.42,0,0,0,1.3,0l4-2.34C239.05,119.05,239.08,118.71,238.73,118.51Z"/><path class="cls-10" d="M245.36,122.34l-4.29-2.48a1.44,1.44,0,0,0-1.31,0l-4,2.34c-.38.22-.4.55-.06.75l4.3,2.48a1.45,1.45,0,0,0,1.3,0l4-2.34C245.68,122.88,245.71,122.54,245.36,122.34Z"/><path class="cls-10" d="M252,126.17l-4.29-2.48a1.45,1.45,0,0,0-1.3,0l-4,2.34c-.38.22-.4.56,0,.76l4.29,2.48a1.42,1.42,0,0,0,1.3,0l4-2.34C252.31,126.7,252.34,126.37,252,126.17Z"/><path class="cls-10" d="M258.62,130l-4.29-2.48a1.42,1.42,0,0,0-1.3,0l-4,2.34c-.37.22-.4.56-.05.76l4.29,2.48a1.42,1.42,0,0,0,1.3,0l4-2.34C258.94,130.53,259,130.19,258.62,130Z"/><path class="cls-10" d="M265.25,133.82,261,131.34a1.45,1.45,0,0,0-1.3,0l-4,2.34c-.37.22-.4.56-.05.76l4.29,2.48a1.42,1.42,0,0,0,1.3,0l4-2.34C265.57,134.36,265.6,134,265.25,133.82Z"/><path class="cls-10" d="M271.88,137.65l-4.29-2.48a1.42,1.42,0,0,0-1.3,0l-4,2.34c-.37.22-.4.56,0,.76l4.29,2.47a1.42,1.42,0,0,0,1.3,0l4-2.34C272.2,138.19,272.23,137.85,271.88,137.65Z"/><path class="cls-10" d="M278.51,141.48,274.22,139a1.42,1.42,0,0,0-1.3,0l-4,2.34c-.37.22-.4.55-.05.75l4.29,2.48a1.42,1.42,0,0,0,1.3,0l4-2.34C278.83,142,278.86,141.68,278.51,141.48Z"/><path class="cls-10" d="M216.08,112.49l-4.3-2.48a1.42,1.42,0,0,0-1.3,0l-4,2.34c-.37.22-.39.56-.05.76l4.29,2.47a1.44,1.44,0,0,0,1.31,0l4-2.34C216.4,113,216.42,112.69,216.08,112.49Z"/><path class="cls-10" d="M209.35,108.61l-4.3-2.48a1.42,1.42,0,0,0-1.3,0l-4,2.34c-.38.22-.4.56-.06.76l4.29,2.48a1.44,1.44,0,0,0,1.31,0l4-2.34C209.67,109.14,209.69,108.8,209.35,108.61Z"/><path class="cls-10" d="M202.61,104.71l-9.25-5.33a1.42,1.42,0,0,0-1.3,0l-4,2.34c-.37.22-.4.56-.05.76l9.24,5.34a1.44,1.44,0,0,0,1.31,0l4-2.34C202.93,105.25,203,104.91,202.61,104.71Z"/><path class="cls-10" d="M194.79,107.26l-7.51-4.33a1.42,1.42,0,0,0-1.3,0l-4,2.34c-.37.22-.4.56-.05.76l7.5,4.33a1.47,1.47,0,0,0,1.31,0l4-2.34C195.11,107.8,195.13,107.46,194.79,107.26Z"/><path class="cls-10" d="M222.71,116.32l-4.3-2.48a1.42,1.42,0,0,0-1.3,0l-4,2.34c-.38.22-.4.55-.06.75l4.29,2.48a1.44,1.44,0,0,0,1.31,0l4-2.34C223,116.86,223.05,116.52,222.71,116.32Z"/><path class="cls-10" d="M229.34,120.15l-4.3-2.48a1.45,1.45,0,0,0-1.3,0l-4,2.34c-.38.22-.4.56-.06.76l4.29,2.48a1.44,1.44,0,0,0,1.31,0l4-2.34C229.66,120.69,229.68,120.35,229.34,120.15Z"/><path class="cls-10" d="M236,124l-4.3-2.48a1.42,1.42,0,0,0-1.3,0l-4,2.34c-.38.22-.4.56-.06.76l4.3,2.48a1.42,1.42,0,0,0,1.3,0l4-2.34C236.29,124.51,236.31,124.17,236,124Z"/><path class="cls-10" d="M242.6,127.8l-4.29-2.48a1.48,1.48,0,0,0-1.31,0l-4,2.34c-.38.22-.4.56-.06.76l4.3,2.48a1.42,1.42,0,0,0,1.3,0l4-2.34C242.92,128.34,242.94,128,242.6,127.8Z"/><path class="cls-10" d="M249.23,131.63l-4.29-2.48a1.44,1.44,0,0,0-1.31,0l-4,2.34c-.38.22-.4.56-.06.76l4.3,2.47a1.42,1.42,0,0,0,1.3,0l4-2.34C249.55,132.17,249.57,131.83,249.23,131.63Z"/><path class="cls-10" d="M255.86,135.46,251.57,133a1.44,1.44,0,0,0-1.31,0l-4,2.34c-.38.22-.4.56-.06.75l4.3,2.48a1.42,1.42,0,0,0,1.3,0l4-2.34C256.18,136,256.2,135.66,255.86,135.46Z"/><path class="cls-10" d="M262.49,139.29l-4.29-2.48a1.44,1.44,0,0,0-1.31,0l-4,2.34c-.38.21-.4.55-.06.75l4.3,2.48a1.45,1.45,0,0,0,1.3,0l4-2.35C262.81,139.83,262.84,139.49,262.49,139.29Z"/><path class="cls-10" d="M269.12,143.12l-4.29-2.48a1.44,1.44,0,0,0-1.31,0l-4,2.34c-.38.22-.4.56-.06.76l4.3,2.48a1.42,1.42,0,0,0,1.3,0l4-2.34C269.44,143.65,269.47,143.32,269.12,143.12Z"/><path class="cls-10" d="M275.75,146.94l-4.29-2.47a1.42,1.42,0,0,0-1.3,0l-4,2.34c-.38.22-.4.56-.06.76l4.3,2.48a1.42,1.42,0,0,0,1.3,0l4-2.34C276.07,147.48,276.1,147.14,275.75,146.94Z"/><path class="cls-10" d="M287.54,153.75l-9.37-5.41a1.42,1.42,0,0,0-1.3,0l-4,2.34c-.37.22-.4.56-.05.75l9.37,5.41a1.42,1.42,0,0,0,1.3,0l4-2.34C287.86,154.29,287.88,154,287.54,153.75Z"/><path class="cls-10" d="M275.38,160.85l-7.9-4.56a1.44,1.44,0,0,0-1.31,0l-4,2.34c-.38.22-.4.56-.06.76L270,164a1.42,1.42,0,0,0,1.3,0l4-2.34C275.7,161.39,275.73,161.05,275.38,160.85Z"/><path class="cls-10" d="M221.79,122.85l-4.3-2.48a1.45,1.45,0,0,0-1.3,0l-4,2.34c-.37.22-.39.56-.05.76l4.29,2.48a1.44,1.44,0,0,0,1.31,0l4-2.34C222.11,123.39,222.13,123.05,221.79,122.85Z"/><path class="cls-10" d="M215,118.92l-4.29-2.48a1.48,1.48,0,0,0-1.31,0l-4,2.34c-.38.22-.4.56-.06.76l4.3,2.48a1.42,1.42,0,0,0,1.3,0l4-2.34C215.31,119.46,215.34,119.12,215,118.92Z"/><path class="cls-10" d="M208.2,115l-4.3-2.48a1.42,1.42,0,0,0-1.3,0l-4,2.34c-.37.22-.4.56-.05.75l4.29,2.48a1.44,1.44,0,0,0,1.31,0l4-2.34C208.52,115.54,208.54,115.2,208.2,115Z"/><path class="cls-10" d="M201.4,111.08l-4.29-2.48a1.47,1.47,0,0,0-1.31,0l-4,2.34c-.38.22-.4.56-.06.76l4.3,2.48a1.42,1.42,0,0,0,1.3,0l4-2.34C201.72,111.62,201.75,111.28,201.4,111.08Z"/><path class="cls-10" d="M228.42,126.68l-4.3-2.48a1.42,1.42,0,0,0-1.3,0l-4,2.34c-.38.22-.4.56-.06.76l4.29,2.48a1.44,1.44,0,0,0,1.31,0l4-2.34C228.74,127.21,228.76,126.87,228.42,126.68Z"/><path class="cls-10" d="M235.05,130.5l-4.3-2.48a1.46,1.46,0,0,0-1.3,0l-4,2.34c-.38.22-.4.56-.06.76l4.29,2.48a1.44,1.44,0,0,0,1.31,0l4-2.34C235.37,131,235.39,130.7,235.05,130.5Z"/><path class="cls-10" d="M241.68,134.33l-4.3-2.48a1.42,1.42,0,0,0-1.3,0l-4,2.34c-.38.22-.4.56-.06.76l4.3,2.47a1.42,1.42,0,0,0,1.3,0l4-2.34C242,134.87,242,134.53,241.68,134.33Z"/><path class="cls-10" d="M248.31,138.16,244,135.68a1.44,1.44,0,0,0-1.31,0l-4,2.34c-.38.22-.4.56-.06.75l4.3,2.48a1.42,1.42,0,0,0,1.3,0l4-2.34C248.63,138.7,248.65,138.36,248.31,138.16Z"/><path class="cls-10" d="M254.94,142l-4.29-2.48a1.44,1.44,0,0,0-1.31,0l-4,2.34c-.38.21-.4.55-.06.75l4.3,2.48a1.45,1.45,0,0,0,1.3,0l4-2.35C255.26,142.53,255.28,142.19,254.94,142Z"/><path class="cls-10" d="M261.57,145.82l-4.29-2.48a1.44,1.44,0,0,0-1.31,0l-4,2.34c-.38.22-.4.56-.06.76l4.3,2.48a1.42,1.42,0,0,0,1.3,0l4-2.34C261.89,146.35,261.91,146,261.57,145.82Z"/><path class="cls-10" d="M268.2,149.64l-4.29-2.47a1.44,1.44,0,0,0-1.31,0l-4,2.34c-.38.22-.4.56-.06.76l4.3,2.48a1.42,1.42,0,0,0,1.3,0l4-2.34C268.52,150.18,268.55,149.84,268.2,149.64Z"/><path class="cls-10" d="M274.83,153.47,270.54,151a1.44,1.44,0,0,0-1.31,0l-4,2.34c-.38.22-.4.56-.06.76l4.3,2.48a1.45,1.45,0,0,0,1.3,0l4-2.34C275.15,154,275.18,153.67,274.83,153.47Z"/><path class="cls-10" d="M281.46,157.3l-4.29-2.48a1.42,1.42,0,0,0-1.3,0l-4,2.34c-.38.22-.4.56-.05.75l4.29,2.48a1.42,1.42,0,0,0,1.3,0l4-2.34C281.78,157.84,281.81,157.5,281.46,157.3Z"/><path class="cls-10" d="M205.76,120.66l-4.29-2.48a1.42,1.42,0,0,0-1.3,0l-4,2.34c-.37.22-.4.56,0,.76l4.29,2.48a1.42,1.42,0,0,0,1.3,0l4-2.34C206.08,121.19,206.11,120.85,205.76,120.66Z"/><path class="cls-10" d="M199.17,116.85l-4.3-2.48a1.42,1.42,0,0,0-1.3,0l-4,2.34c-.37.22-.4.56-.05.76L193.8,120a1.44,1.44,0,0,0,1.31,0l4-2.34C199.49,117.38,199.51,117.05,199.17,116.85Z"/><path class="cls-10" d="M192.57,113l-4.29-2.48a1.47,1.47,0,0,0-1.31,0l-4,2.34c-.38.22-.4.56-.06.76l4.3,2.48a1.42,1.42,0,0,0,1.3,0l4-2.34C192.89,113.58,192.91,113.24,192.57,113Z"/><path class="cls-10" d="M186,109.23l-4.29-2.48a1.44,1.44,0,0,0-1.31,0l-4,2.34c-.38.21-.4.55-.06.75l4.3,2.48a1.45,1.45,0,0,0,1.3,0l4-2.34C186.29,109.77,186.32,109.43,186,109.23Z"/><path class="cls-10" d="M179.58,113l-4.29-2.48a1.42,1.42,0,0,0-1.3,0l-1.33.77c-.37.22-.4.56,0,.76l4.29,2.48a1.42,1.42,0,0,0,1.3,0l1.33-.77C179.9,113.5,179.93,113.16,179.58,113Z"/><path class="cls-10" d="M188.19,117.93l-4.29-2.48a1.42,1.42,0,0,0-1.3,0l-1.33.77c-.37.22-.4.56-.05.76l4.29,2.48a1.42,1.42,0,0,0,1.3,0l1.33-.77C188.51,118.47,188.54,118.13,188.19,117.93Z"/><path class="cls-10" d="M194.76,121.72l-4.29-2.47a1.42,1.42,0,0,0-1.3,0l-1.33.78c-.37.21-.4.55-.05.75l4.29,2.48a1.45,1.45,0,0,0,1.3,0l1.33-.78C195.08,122.26,195.11,121.92,194.76,121.72Z"/><path class="cls-10" d="M201.33,125.52,197,123a1.45,1.45,0,0,0-1.3,0l-1.33.78c-.37.22-.4.56,0,.76l4.29,2.47a1.42,1.42,0,0,0,1.3,0l1.33-.78C201.65,126.06,201.68,125.72,201.33,125.52Z"/><path class="cls-10" d="M207.9,129.31l-4.29-2.48a1.42,1.42,0,0,0-1.3,0l-1.33.77c-.37.22-.4.56,0,.76l4.29,2.48a1.42,1.42,0,0,0,1.3,0l1.33-.77C208.22,129.85,208.25,129.51,207.9,129.31Z"/><path class="cls-10" d="M244.58,150.49,240.29,148a1.42,1.42,0,0,0-1.3,0l-1.33.77c-.37.22-.4.56,0,.76l4.29,2.47a1.42,1.42,0,0,0,1.3,0l1.33-.78C244.9,151,244.93,150.69,244.58,150.49Z"/><path class="cls-10" d="M251.15,154.28l-4.29-2.48a1.42,1.42,0,0,0-1.3,0l-1.33.77c-.37.22-.4.56,0,.76l4.29,2.48a1.42,1.42,0,0,0,1.3,0l1.33-.77C251.47,154.82,251.5,154.48,251.15,154.28Z"/><path class="cls-10" d="M257.72,158.07l-4.29-2.47a1.42,1.42,0,0,0-1.3,0l-1.33.78c-.37.21-.4.55-.05.75l4.29,2.48a1.42,1.42,0,0,0,1.3,0l1.33-.77C258,158.61,258.07,158.27,257.72,158.07Z"/><path class="cls-10" d="M264.29,161.87,260,159.39a1.45,1.45,0,0,0-1.3,0l-1.33.78c-.37.22-.4.56-.05.76l4.29,2.47a1.42,1.42,0,0,0,1.3,0l1.33-.78C264.61,162.41,264.64,162.07,264.29,161.87Z"/><path class="cls-10" d="M212.39,124.48,208.1,122a1.45,1.45,0,0,0-1.3,0l-4,2.34c-.37.22-.4.56,0,.76l4.29,2.48a1.42,1.42,0,0,0,1.3,0l4-2.34C212.71,125,212.74,124.68,212.39,124.48Z"/><path class="cls-10" d="M219,128.31l-4.29-2.48a1.42,1.42,0,0,0-1.3,0l-4,2.34c-.37.22-.4.56,0,.76l4.29,2.48a1.45,1.45,0,0,0,1.3,0l4-2.34C219.35,128.85,219.37,128.51,219,128.31Z"/><path class="cls-10" d="M225.66,132.14l-4.3-2.48a1.42,1.42,0,0,0-1.3,0l-4,2.34c-.37.22-.4.56-.05.75l4.29,2.48a1.44,1.44,0,0,0,1.31,0l4-2.34C226,132.68,226,132.34,225.66,132.14Z"/><path class="cls-10" d="M232.29,136l-4.3-2.48a1.42,1.42,0,0,0-1.3,0l-4,2.34c-.37.21-.4.55-.05.75l4.29,2.48a1.47,1.47,0,0,0,1.31,0l4-2.34C232.61,136.51,232.63,136.17,232.29,136Z"/><path class="cls-10" d="M238.92,139.8l-4.3-2.48a1.42,1.42,0,0,0-1.3,0l-4,2.34c-.37.22-.4.56-.05.76l4.29,2.48a1.44,1.44,0,0,0,1.31,0l4-2.34C239.24,140.33,239.26,140,238.92,139.8Z"/><path class="cls-10" d="M245.55,143.62l-4.3-2.47a1.42,1.42,0,0,0-1.3,0l-4,2.34c-.37.22-.39.56-.05.76l4.29,2.48a1.44,1.44,0,0,0,1.31,0l4-2.34C245.87,144.16,245.89,143.82,245.55,143.62Z"/><path class="cls-10" d="M252.18,147.45l-4.3-2.48a1.42,1.42,0,0,0-1.3,0l-4,2.34c-.38.22-.4.56-.06.76l4.29,2.48a1.48,1.48,0,0,0,1.31,0l4-2.34C252.5,148,252.52,147.65,252.18,147.45Z"/><path class="cls-10" d="M258.81,151.28l-4.3-2.48a1.42,1.42,0,0,0-1.3,0l-4,2.34c-.38.22-.4.56-.06.76l4.29,2.47a1.44,1.44,0,0,0,1.31,0l4-2.34C259.13,151.82,259.15,151.48,258.81,151.28Z"/><path class="cls-10" d="M265.44,155.11l-4.3-2.48a1.42,1.42,0,0,0-1.3,0l-4,2.34c-.38.22-.4.55-.06.75l4.3,2.48a1.42,1.42,0,0,0,1.3,0l4-2.34C265.76,155.65,265.78,155.31,265.44,155.11Z"/><path class="cls-10" d="M212.08,103.13l-12.64-7.31a1.48,1.48,0,0,0-1.31,0l-4,2.34c-.38.22-.4.56-.06.76l12.65,7.3a1.42,1.42,0,0,0,1.3,0l4-2.34C212.4,103.66,212.43,103.32,212.08,103.13Z"/><path class="cls-10" d="M293.54,150.15l-12.65-7.3a1.46,1.46,0,0,0-1.3,0l-4,2.34c-.38.22-.4.56-.06.76l12.65,7.3a1.42,1.42,0,0,0,1.3,0l4-2.34C293.86,150.69,293.88,150.35,293.54,150.15Z"/><path class="cls-10" d="M281.24,135.05,277,132.57a1.42,1.42,0,0,0-1.3,0l-4.78,2.79c-.37.22-.4.56-.05.76l4.29,2.48a1.48,1.48,0,0,0,1.31,0l4.77-2.79C281.56,135.58,281.59,135.24,281.24,135.05Z"/><path class="cls-10" d="M233.09,107.24l-6.87-4a1.42,1.42,0,0,0-1.3,0l-4.77,2.78c-.38.22-.4.56-.06.76l6.87,4a1.45,1.45,0,0,0,1.3,0L233,108C233.41,107.78,233.44,107.44,233.09,107.24Z"/><path class="cls-10" d="M274.85,131.36l-6.86-4a1.44,1.44,0,0,0-1.31,0l-4.77,2.79c-.37.22-.4.55-.05.75l6.86,4a1.44,1.44,0,0,0,1.31,0l4.77-2.79C275.17,131.89,275.2,131.56,274.85,131.36Z"/><path class="cls-10" d="M242.66,112.77l-6.87-4a1.42,1.42,0,0,0-1.3,0l-4.77,2.79c-.38.22-.4.56-.06.75l6.87,4a1.42,1.42,0,0,0,1.3,0l4.77-2.78C243,113.31,243,113,242.66,112.77Z"/><path class="cls-10" d="M229.71,112.41l29.85,17.24a1.45,1.45,0,0,0,1.3,0l4.87-2.85c.35-.2.33-.54,0-.75l-29.85-17.24Z"/><path class="cls-10" d="M293.45,145.66l4.79,2.76a1.17,1.17,0,0,0,1.06,0l2-1.14c.3-.18.32-.46,0-.62l-4.78-2.77a1.22,1.22,0,0,0-1.07,0L293.5,145C293.19,145.21,293.17,145.49,293.45,145.66Z"/><path class="cls-10" d="M286.77,141.8l4.78,2.76a1.19,1.19,0,0,0,1.07,0l1.95-1.14c.31-.18.33-.46.05-.62L289.83,140a1.19,1.19,0,0,0-1.07,0l-1.95,1.15C286.51,141.35,286.49,141.63,286.77,141.8Z"/><path class="cls-10" d="M280.14,138l4.78,2.76a1.19,1.19,0,0,0,1.07,0l1.95-1.14c.31-.18.33-.46,0-.62l-4.78-2.76a1.16,1.16,0,0,0-1.07,0l-1.95,1.14C279.87,137.53,279.85,137.8,280.14,138Z"/><path class="cls-10" d="M283.32,143.81l4.78,2.76a1.19,1.19,0,0,0,1.07,0l1.95-1.14c.31-.18.33-.46.05-.62L286.38,142a1.17,1.17,0,0,0-1.06,0l-1.95,1.14C283.06,143.37,283,143.65,283.32,143.81Z"/></g></g></g><g class="cls-21"><path class="cls-10" d="M117.18,147.61l-4.25-2.45c-.34-.2-.3-.54.09-.77l5-2.9a1.48,1.48,0,0,1,1.34-.05l4.25,2.45c.34.2.3.54-.1.77l-5,2.9A1.46,1.46,0,0,1,117.18,147.61Z"/><path class="cls-10" d="M123.75,151.4,119.5,149c-.35-.2-.3-.54.09-.77l5-2.9a1.49,1.49,0,0,1,1.33-.05l4.25,2.45c.35.2.3.54-.09.77l-5,2.9A1.46,1.46,0,0,1,123.75,151.4Z"/><path class="cls-10" d="M130.31,155.2l-4.25-2.46c-.34-.2-.3-.54.1-.77l5-2.9a1.49,1.49,0,0,1,1.33,0l4.25,2.45c.34.2.3.55-.09.77l-5,2.9A1.51,1.51,0,0,1,130.31,155.2Z"/><path class="cls-10" d="M139.4,152.06l-4.26-2.45c-.34-.2-.29-.54.1-.77l4.21-2.43a1.49,1.49,0,0,1,1.33-.06l4.26,2.46c.34.2.3.54-.1.77L140.73,152A1.46,1.46,0,0,1,139.4,152.06Z"/><path class="cls-10" d="M146,155.86l-4.25-2.46c-.34-.2-.3-.54.1-.77L146,150.2a1.49,1.49,0,0,1,1.33-.06l4.25,2.46c.35.2.3.54-.09.77l-4.22,2.43A1.49,1.49,0,0,1,146,155.86Z"/><path class="cls-10" d="M152.53,159.65l-4.25-2.46c-.34-.19-.3-.54.09-.77l4.22-2.43a1.46,1.46,0,0,1,1.33-.05l4.25,2.45c.34.2.3.54-.1.77l-4.21,2.43A1.49,1.49,0,0,1,152.53,159.65Z"/><path class="cls-10" d="M159.1,163.44,154.84,161c-.34-.19-.29-.54.1-.77l4.21-2.43a1.46,1.46,0,0,1,1.33-.05l4.26,2.45c.34.2.3.54-.1.77l-4.21,2.43A1.46,1.46,0,0,1,159.1,163.44Z"/><path class="cls-10" d="M165.66,167.23l-4.25-2.46c-.34-.19-.3-.54.1-.76l4.21-2.44a1.49,1.49,0,0,1,1.33,0L171.3,164c.34.2.3.54-.09.77L167,167.17A1.46,1.46,0,0,1,165.66,167.23Z"/><path class="cls-10" d="M172.23,171,168,168.57c-.34-.2-.3-.55.09-.77l4.22-2.44a1.49,1.49,0,0,1,1.33-.05l4.25,2.45c.34.2.3.55-.1.77L173.56,171A1.49,1.49,0,0,1,172.23,171Z"/><path class="cls-10" d="M178.8,174.81l-4.26-2.45c-.34-.2-.29-.54.1-.77l4.21-2.43a1.46,1.46,0,0,1,1.33-.06l4.26,2.46c.34.19.3.54-.1.76l-4.21,2.44A1.49,1.49,0,0,1,178.8,174.81Z"/><path class="cls-10" d="M185.36,178.6l-4.25-2.45c-.34-.2-.3-.54.1-.77l4.21-2.43a1.46,1.46,0,0,1,1.33-.06l4.25,2.46c.34.19.3.54-.09.77l-4.22,2.43A1.46,1.46,0,0,1,185.36,178.6Z"/><path class="cls-10" d="M191.93,182.39l-4.25-2.45c-.34-.2-.3-.54.09-.77l4.22-2.43a1.49,1.49,0,0,1,1.33-.06l4.25,2.46c.34.2.3.54-.1.77l-4.21,2.43A1.46,1.46,0,0,1,191.93,182.39Z"/><path class="cls-10" d="M198.5,186.19l-4.26-2.46c-.34-.2-.29-.54.1-.77l4.21-2.43a1.49,1.49,0,0,1,1.33-.06l4.26,2.46c.34.2.3.54-.1.77l-4.21,2.43A1.49,1.49,0,0,1,198.5,186.19Z"/><path class="cls-10" d="M149.07,150.27l-4.25-2.46c-.34-.19-.3-.54.1-.76l4.21-2.44a1.49,1.49,0,0,1,1.33-.05l4.25,2.45c.34.2.3.54-.09.77l-4.22,2.43A1.46,1.46,0,0,1,149.07,150.27Z"/><path class="cls-10" d="M142.41,146.42,138.15,144c-.34-.2-.29-.54.1-.77l4.21-2.43a1.48,1.48,0,0,1,1.34-.06l4.25,2.46c.34.19.3.54-.1.76l-4.21,2.44A1.49,1.49,0,0,1,142.41,146.42Z"/><path class="cls-10" d="M135.73,142.57l-9.16-5.29c-.34-.2-.3-.54.1-.77l4.21-2.43a1.49,1.49,0,0,1,1.33-.06l9.16,5.29c.34.2.3.54-.09.77l-4.22,2.43A1.46,1.46,0,0,1,135.73,142.57Z"/><path class="cls-10" d="M140.4,137.88,133,133.59c-.35-.2-.3-.54.09-.77l4.21-2.43a1.51,1.51,0,0,1,1.34-.06l7.43,4.29c.34.2.3.55-.1.77l-4.21,2.44A1.49,1.49,0,0,1,140.4,137.88Z"/><path class="cls-10" d="M155.64,154.06l-4.25-2.45c-.35-.2-.3-.55.09-.77l4.22-2.44a1.49,1.49,0,0,1,1.33-.05l4.25,2.45c.34.2.3.55-.1.77L157,154A1.49,1.49,0,0,1,155.64,154.06Z"/><path class="cls-10" d="M162.2,157.85,158,155.4c-.34-.2-.3-.54.1-.77l4.21-2.43a1.46,1.46,0,0,1,1.33-.06l4.26,2.46c.34.19.29.54-.1.76l-4.21,2.44A1.51,1.51,0,0,1,162.2,157.85Z"/><path class="cls-10" d="M168.77,161.64l-4.25-2.45c-.34-.2-.3-.54.1-.77l4.21-2.43a1.46,1.46,0,0,1,1.33-.06l4.25,2.46c.34.19.3.54-.09.77l-4.22,2.43A1.46,1.46,0,0,1,168.77,161.64Z"/><path class="cls-10" d="M175.34,165.43,171.09,163c-.35-.2-.3-.54.09-.77l4.21-2.43a1.51,1.51,0,0,1,1.34-.06l4.25,2.46c.34.2.3.54-.1.77l-4.21,2.43A1.46,1.46,0,0,1,175.34,165.43Z"/><path class="cls-10" d="M181.9,169.23l-4.25-2.46c-.34-.2-.3-.54.1-.77l4.21-2.43a1.49,1.49,0,0,1,1.33-.06l4.26,2.46c.34.2.29.54-.1.77l-4.21,2.43A1.51,1.51,0,0,1,181.9,169.23Z"/><path class="cls-10" d="M188.47,173l-4.25-2.46c-.34-.19-.3-.54.09-.77l4.22-2.43a1.46,1.46,0,0,1,1.33-.05l4.25,2.45c.34.2.3.54-.09.77L189.8,173A1.49,1.49,0,0,1,188.47,173Z"/><path class="cls-10" d="M195,176.81l-4.25-2.46c-.35-.19-.3-.54.09-.77l4.21-2.43a1.48,1.48,0,0,1,1.34-.05l4.25,2.45c.34.2.3.54-.1.77l-4.21,2.43A1.46,1.46,0,0,1,195,176.81Z"/><path class="cls-10" d="M201.6,180.6l-4.25-2.46c-.34-.19-.3-.54.1-.76l4.21-2.44a1.49,1.49,0,0,1,1.33-.05l4.26,2.45c.34.2.29.54-.1.77l-4.21,2.43A1.48,1.48,0,0,1,201.6,180.6Z"/><path class="cls-10" d="M208.17,184.39l-4.25-2.45c-.34-.2-.3-.55.09-.77l4.22-2.44a1.49,1.49,0,0,1,1.33,0l4.25,2.45c.34.2.3.55-.09.77l-4.22,2.44A1.49,1.49,0,0,1,208.17,184.39Z"/><path class="cls-10" d="M219.85,191.13l-9.28-5.36c-.34-.19-.3-.54.09-.76l4.22-2.44a1.49,1.49,0,0,1,1.33,0l9.28,5.35c.34.2.29.55-.1.77l-4.21,2.44A1.49,1.49,0,0,1,219.85,191.13Z"/><path class="cls-10" d="M232.63,183.75l-7.83-4.52c-.34-.2-.3-.54.09-.77l4.22-2.43a1.49,1.49,0,0,1,1.33-.06l7.83,4.52c.34.2.3.54-.1.77L234,183.69A1.46,1.46,0,0,1,232.63,183.75Z"/><path class="cls-10" d="M167.14,153.32l-4.25-2.46c-.35-.19-.3-.54.09-.76l4.21-2.44a1.51,1.51,0,0,1,1.34,0l4.25,2.45c.34.2.3.54-.1.77l-4.21,2.43A1.46,1.46,0,0,1,167.14,153.32Z"/><path class="cls-10" d="M160.41,149.43,156.16,147c-.35-.2-.3-.54.09-.77l4.21-2.43a1.51,1.51,0,0,1,1.34-.06l4.25,2.46c.34.19.3.54-.1.77l-4.21,2.43A1.46,1.46,0,0,1,160.41,149.43Z"/><path class="cls-10" d="M153.68,145.55l-4.25-2.46c-.35-.19-.3-.54.09-.77l4.21-2.43a1.48,1.48,0,0,1,1.34,0l4.25,2.45c.34.2.3.54-.1.77L155,145.49A1.46,1.46,0,0,1,153.68,145.55Z"/><path class="cls-10" d="M147,141.66l-4.25-2.45c-.35-.2-.3-.54.09-.77L147,136a1.48,1.48,0,0,1,1.34-.06l4.25,2.46c.34.19.3.54-.1.77l-4.21,2.43A1.46,1.46,0,0,1,147,141.66Z"/><path class="cls-10" d="M173.7,157.11l-4.25-2.45c-.34-.2-.3-.55.1-.77l4.21-2.44a1.49,1.49,0,0,1,1.33,0l4.26,2.45c.34.2.29.55-.1.77L175,157.06A1.51,1.51,0,0,1,173.7,157.11Z"/><path class="cls-10" d="M180.27,160.9,176,158.45c-.34-.2-.3-.54.09-.77l4.22-2.43a1.46,1.46,0,0,1,1.33-.06l4.25,2.46c.34.19.3.54-.09.76l-4.22,2.44A1.49,1.49,0,0,1,180.27,160.9Z"/><path class="cls-10" d="M186.84,164.69l-4.25-2.45c-.35-.2-.3-.54.09-.77l4.21-2.43a1.48,1.48,0,0,1,1.34-.06l4.25,2.46c.34.19.3.54-.1.77l-4.21,2.43A1.46,1.46,0,0,1,186.84,164.69Z"/><path class="cls-10" d="M193.4,168.48,189.15,166c-.34-.2-.3-.54.1-.77l4.21-2.43a1.49,1.49,0,0,1,1.33-.06l4.26,2.46c.34.19.29.54-.1.77l-4.21,2.43A1.48,1.48,0,0,1,193.4,168.48Z"/><path class="cls-10" d="M200,172.28l-4.25-2.46c-.34-.2-.3-.54.09-.77l4.22-2.43a1.49,1.49,0,0,1,1.33-.06l4.25,2.46c.34.2.3.54-.09.77l-4.22,2.43A1.49,1.49,0,0,1,200,172.28Z"/><path class="cls-10" d="M206.54,176.07l-4.25-2.46c-.35-.2-.3-.54.09-.77l4.21-2.43a1.48,1.48,0,0,1,1.34,0l4.25,2.45c.34.2.3.54-.1.77L207.87,176A1.49,1.49,0,0,1,206.54,176.07Z"/><path class="cls-10" d="M213.1,179.86l-4.25-2.46c-.34-.19-.3-.54.1-.77l4.21-2.43a1.46,1.46,0,0,1,1.33,0l4.25,2.45c.35.2.3.54-.09.77l-4.21,2.43A1.48,1.48,0,0,1,213.1,179.86Z"/><path class="cls-10" d="M219.67,183.65l-4.25-2.46c-.34-.19-.3-.54.09-.76l4.22-2.44a1.49,1.49,0,0,1,1.33-.05l4.25,2.45c.34.2.3.54-.09.77L221,183.59A1.46,1.46,0,0,1,219.67,183.65Z"/><path class="cls-10" d="M226.24,187.44,222,185c-.35-.2-.3-.55.09-.77l4.21-2.44a1.51,1.51,0,0,1,1.34-.05l4.25,2.45c.34.2.3.55-.1.77l-4.21,2.44A1.49,1.49,0,0,1,226.24,187.44Z"/><path class="cls-10" d="M163.68,143.94l-4.25-2.45c-.34-.2-.3-.54.09-.77l4.22-2.43a1.46,1.46,0,0,1,1.33-.06l4.25,2.46c.34.19.3.54-.09.76L165,143.89A1.49,1.49,0,0,1,163.68,143.94Z"/><path class="cls-10" d="M157.15,140.17l-4.26-2.46c-.34-.19-.29-.54.1-.76l4.21-2.44a1.49,1.49,0,0,1,1.33,0l4.26,2.45c.34.2.3.54-.1.77l-4.21,2.43A1.46,1.46,0,0,1,157.15,140.17Z"/><path class="cls-10" d="M150.61,136.4l-4.25-2.46c-.34-.19-.3-.54.1-.77l4.21-2.43a1.46,1.46,0,0,1,1.33-.05l4.25,2.45c.34.2.3.54-.09.77l-4.22,2.43A1.49,1.49,0,0,1,150.61,136.4Z"/><path class="cls-10" d="M144.08,132.62l-4.25-2.45c-.35-.2-.3-.54.09-.77l4.21-2.43a1.51,1.51,0,0,1,1.34-.06l4.25,2.46c.34.2.3.54-.1.77l-4.21,2.43A1.46,1.46,0,0,1,144.08,132.62Z"/><path class="cls-10" d="M150.8,128.75l-4.26-2.46c-.34-.2-.29-.54.1-.77l1.39-.8a1.51,1.51,0,0,1,1.34-.06l4.25,2.46c.34.19.3.54-.1.77l-1.39.8A1.49,1.49,0,0,1,150.8,128.75Z"/><path class="cls-10" d="M159.32,133.67l-4.25-2.46c-.34-.19-.3-.54.1-.77l1.39-.8a1.46,1.46,0,0,1,1.33,0l4.25,2.45c.35.2.3.54-.09.77l-1.39.8A1.48,1.48,0,0,1,159.32,133.67Z"/><path class="cls-10" d="M165.83,137.43,161.58,135c-.34-.2-.3-.54.09-.77l1.4-.8a1.46,1.46,0,0,1,1.33-.06l4.25,2.46c.34.19.3.54-.09.77l-1.4.8A1.49,1.49,0,0,1,165.83,137.43Z"/><path class="cls-10" d="M172.34,141.18l-4.25-2.45c-.35-.2-.3-.54.09-.77l1.39-.81a1.51,1.51,0,0,1,1.34-.05l4.25,2.45c.34.2.3.55-.1.77l-1.39.81A1.49,1.49,0,0,1,172.34,141.18Z"/><path class="cls-10" d="M178.84,144.94l-4.25-2.46c-.34-.19-.3-.54.1-.77l1.39-.8a1.46,1.46,0,0,1,1.33,0l4.25,2.45c.35.2.3.54-.09.77l-1.39.8A1.48,1.48,0,0,1,178.84,144.94Z"/><path class="cls-10" d="M215.17,165.91l-4.25-2.45c-.34-.2-.3-.54.09-.77l1.4-.81a1.49,1.49,0,0,1,1.33,0l4.25,2.45c.34.2.3.54-.1.77l-1.39.81A1.49,1.49,0,0,1,215.17,165.91Z"/><path class="cls-10" d="M221.68,169.67l-4.26-2.46c-.34-.19-.29-.54.1-.77l1.39-.8a1.51,1.51,0,0,1,1.34-.06L224.5,168c.34.2.3.54-.1.77l-1.39.8A1.46,1.46,0,0,1,221.68,169.67Z"/><path class="cls-10" d="M228.18,173.42,223.93,171c-.34-.2-.3-.54.1-.77l1.39-.8a1.46,1.46,0,0,1,1.33-.06L231,171.8c.35.19.3.54-.09.77l-1.39.8A1.48,1.48,0,0,1,228.18,173.42Z"/><path class="cls-10" d="M234.69,177.18l-4.25-2.45c-.34-.2-.3-.54.09-.77l1.4-.81a1.49,1.49,0,0,1,1.33-.05l4.25,2.45c.34.2.3.54-.09.77l-1.4.81A1.49,1.49,0,0,1,234.69,177.18Z"/><path class="cls-10" d="M170.25,147.73,166,145.28c-.34-.2-.29-.54.1-.77l4.21-2.43a1.48,1.48,0,0,1,1.34-.06l4.25,2.46c.34.19.3.54-.1.77l-4.21,2.43A1.46,1.46,0,0,1,170.25,147.73Z"/><path class="cls-10" d="M176.81,151.52l-4.25-2.45c-.34-.2-.3-.54.1-.77l4.21-2.43a1.49,1.49,0,0,1,1.33-.06l4.25,2.46c.35.19.3.54-.09.77l-4.21,2.43A1.48,1.48,0,0,1,176.81,151.52Z"/><path class="cls-10" d="M183.38,155.32l-4.25-2.46c-.34-.2-.3-.54.09-.77l4.22-2.43a1.49,1.49,0,0,1,1.33-.06l4.25,2.46c.34.2.3.54-.09.77l-4.22,2.43A1.49,1.49,0,0,1,183.38,155.32Z"/><path class="cls-10" d="M190,159.11l-4.26-2.46c-.34-.2-.29-.54.1-.77l4.21-2.43a1.48,1.48,0,0,1,1.34,0l4.25,2.45c.34.2.3.54-.1.77l-4.21,2.43A1.49,1.49,0,0,1,190,159.11Z"/><path class="cls-10" d="M196.51,162.9l-4.25-2.46c-.34-.19-.3-.54.1-.77l4.21-2.43a1.46,1.46,0,0,1,1.33-.05l4.25,2.45c.35.2.3.54-.09.77l-4.21,2.43A1.48,1.48,0,0,1,196.51,162.9Z"/><path class="cls-10" d="M203.08,166.69l-4.25-2.46c-.34-.19-.3-.54.09-.76l4.22-2.44a1.49,1.49,0,0,1,1.33-.05l4.25,2.45c.34.2.3.54-.1.77l-4.21,2.43A1.46,1.46,0,0,1,203.08,166.69Z"/><path class="cls-10" d="M209.65,170.48,205.39,168c-.34-.2-.29-.55.1-.77l4.21-2.44a1.51,1.51,0,0,1,1.34,0l4.25,2.45c.34.2.3.55-.1.77L211,170.43A1.49,1.49,0,0,1,209.65,170.48Z"/><path class="cls-10" d="M216.21,174.27,212,171.82c-.34-.2-.3-.54.1-.77l4.21-2.43a1.46,1.46,0,0,1,1.33-.06l4.25,2.46c.35.19.3.54-.09.76l-4.21,2.44A1.51,1.51,0,0,1,216.21,174.27Z"/><path class="cls-10" d="M222.78,178.06l-4.25-2.45c-.34-.2-.3-.54.09-.77l4.22-2.43a1.46,1.46,0,0,1,1.33-.06l4.25,2.46c.34.19.3.54-.1.77L224.11,178A1.46,1.46,0,0,1,222.78,178.06Z"/><path class="cls-10" d="M132.7,148.2,120.18,141c-.34-.2-.3-.54.1-.77l4.21-2.43a1.49,1.49,0,0,1,1.33-.06l12.53,7.23c.34.2.29.55-.1.77L134,148.15A1.51,1.51,0,0,1,132.7,148.2Z"/><path class="cls-10" d="M213.38,194.78l-12.53-7.23c-.34-.2-.29-.54.1-.77l4.21-2.43a1.46,1.46,0,0,1,1.33-.06L219,191.52c.34.2.3.54-.1.77l-4.21,2.43A1.49,1.49,0,0,1,213.38,194.78Z"/><path class="cls-10" d="M187.12,188l-4.26-2.45c-.34-.2-.29-.55.1-.77l5-2.9a1.49,1.49,0,0,1,1.33-.06l4.25,2.46c.34.2.3.54-.09.77l-5,2.9A1.49,1.49,0,0,1,187.12,188Z"/><path class="cls-10" d="M139.43,160.46l-6.8-3.93c-.34-.2-.3-.54.09-.77l5-2.89a1.48,1.48,0,0,1,1.34-.06l6.8,3.93c.34.19.29.54-.1.77l-5,2.89A1.46,1.46,0,0,1,139.43,160.46Z"/><path class="cls-10" d="M180.79,184.34l-6.8-3.93c-.34-.2-.3-.54.09-.77l5-2.9a1.51,1.51,0,0,1,1.34-.05l6.8,3.93c.34.19.29.54-.1.76l-5,2.9A1.49,1.49,0,0,1,180.79,184.34Z"/><path class="cls-10" d="M148.9,165.93,142.1,162c-.34-.2-.3-.54.1-.77l5-2.89a1.46,1.46,0,0,1,1.33-.06l6.8,3.93c.34.19.3.54-.1.77l-5,2.89A1.48,1.48,0,0,1,148.9,165.93Z"/><path class="cls-10" d="M148.6,158.31l29.56,17.07c.37.21.37.55,0,.76l-5.12,3a1.46,1.46,0,0,1-1.32,0L142.15,162Z"/><path class="cls-10" d="M205.47,194.86l4.74,2.74c.27.16.24.44-.08.63l-2.06,1.18a1.2,1.2,0,0,1-1.09.05l-4.73-2.73c-.28-.17-.25-.45.07-.64l2.06-1.18A1.2,1.2,0,0,1,205.47,194.86Z"/><path class="cls-10" d="M198.85,191l4.73,2.74c.28.16.25.44-.07.63l-2.06,1.18a1.2,1.2,0,0,1-1.09,0l-4.74-2.74c-.28-.16-.24-.44.08-.63l2.06-1.18A1.2,1.2,0,0,1,198.85,191Z"/><path class="cls-10" d="M192.28,187.25,197,190c.28.17.24.45-.08.64l-2.05,1.18a1.23,1.23,0,0,1-1.1,0l-4.73-2.74c-.28-.16-.25-.44.08-.63l2.05-1.18A1.2,1.2,0,0,1,192.28,187.25Z"/><path class="cls-10" d="M202.47,189l4.74,2.73c.28.16.24.45-.08.63l-2,1.19a1.2,1.2,0,0,1-1.09,0l-4.74-2.73c-.28-.16-.24-.44.08-.63l2-1.19A1.23,1.23,0,0,1,202.47,189Z"/></g><path class="cls-7" d="M269.47,86.78a2,2,0,0,1-1-.29,2.89,2.89,0,0,1-1.38-2.92,1.45,1.45,0,0,1,.83-1.06,1.74,1.74,0,0,1,1.58.16,2.91,2.91,0,0,1,1.38,2.93,1.45,1.45,0,0,1-.83,1.06A1.43,1.43,0,0,1,269.47,86.78Zm-1-3.94a.91.91,0,0,0-.41.09,1,1,0,0,0-.57.74,2.42,2.42,0,0,0,1.17,2.43,1.29,1.29,0,0,0,1.17.14,1,1,0,0,0,.57-.74,2.42,2.42,0,0,0-1.17-2.43A1.55,1.55,0,0,0,268.51,82.84Z"/><path class="cls-7" d="M274.88,89.9a2,2,0,0,1-1-.28,2.89,2.89,0,0,1-1.39-2.93,1.49,1.49,0,0,1,.83-1.06,1.77,1.77,0,0,1,1.58.17,2.91,2.91,0,0,1,1.39,2.93,1.49,1.49,0,0,1-.83,1.06A1.47,1.47,0,0,1,274.88,89.9Zm-1-3.93a1,1,0,0,0-1,.82,2.44,2.44,0,0,0,1.18,2.44,1.33,1.33,0,0,0,1.16.14,1,1,0,0,0,.57-.74,2.43,2.43,0,0,0-1.17-2.44A1.61,1.61,0,0,0,273.92,86Z"/><path class="cls-7" d="M281.49,91.8a1.3,1.3,0,0,1-2.07.75,2.65,2.65,0,0,1-1.28-2.68,1.29,1.29,0,0,1,2.07-.75A2.65,2.65,0,0,1,281.49,91.8Z"/><polygon class="cls-7" points="177.68 32.06 174.78 30.39 175 29.05 177.9 30.72 177.68 32.06"/><polygon class="cls-7" points="181.88 34.49 178.99 32.82 179.21 31.48 182.11 33.15 181.88 34.49"/><polygon class="cls-7" points="173.51 29.66 167.16 25.99 167.38 24.65 173.73 28.32 173.51 29.66"/><polygon class="cls-7" points="174.31 54.92 169.46 52.12 169.65 51 174.5 53.8 174.31 54.92"/><polygon class="cls-7" points="178.44 57.31 176.02 55.91 176.21 54.79 178.63 56.19 178.44 57.31"/><polygon class="cls-7" points="175.3 58.37 173.23 57.18 173.42 56.06 175.49 57.25 175.3 58.37"/><polygon class="cls-7" points="178.76 60.37 176.33 58.97 176.52 57.85 178.94 59.25 178.76 60.37"/><polygon class="cls-7" points="182.32 65.31 172.79 59.81 172.98 58.69 182.5 64.19 182.32 65.31"/><polygon class="cls-7" points="174.06 87.3 164.54 81.8 164.72 80.68 174.25 86.18 174.06 87.3"/><polygon class="cls-7" points="177.72 89.41 175.3 88.01 175.49 86.89 177.91 88.29 177.72 89.41"/><polygon class="cls-7" points="174.42 63.63 172.35 62.43 172.54 61.31 174.6 62.51 174.42 63.63"/><polygon class="cls-7" points="177.88 65.62 175.45 64.22 175.64 63.1 178.06 64.5 177.88 65.62"/><polygon class="cls-7" points="177.15 68.08 171.91 65.06 172.1 63.94 177.34 66.96 177.15 68.08"/><polygon class="cls-7" points="180.65 70.11 178.23 68.71 178.42 67.59 180.84 68.99 180.65 70.11"/><polygon class="cls-7" points="184.17 72.14 181.75 70.74 181.94 69.62 184.36 71.02 184.17 72.14"/><polygon class="cls-7" points="189.86 75.42 185.27 72.78 185.46 71.66 190.05 74.3 189.86 75.42"/><polygon class="cls-7" points="186.23 79.09 183.81 77.69 183.99 76.57 186.42 77.97 186.23 79.09"/><polygon class="cls-7" points="191.91 82.37 187.33 79.72 187.52 78.6 192.1 81.25 191.91 82.37"/><polygon class="cls-7" points="173.45 71.71 171.03 70.31 171.22 69.19 173.64 70.59 173.45 71.71"/><polygon class="cls-7" points="176.98 73.75 174.55 72.35 174.74 71.23 177.16 72.63 176.98 73.75"/><polygon class="cls-7" points="182.66 77.03 178.08 74.38 178.26 73.26 182.85 75.91 182.66 77.03"/><polygon class="cls-7" points="190.11 78.45 187.69 77.05 187.88 75.93 190.3 77.33 190.11 78.45"/><polygon class="cls-7" points="193.63 80.48 191.21 79.08 191.4 77.96 193.82 79.36 193.63 80.48"/><polygon class="cls-7" points="199.32 83.77 194.73 81.12 194.92 80 199.51 82.64 199.32 83.77"/><polygon class="cls-7" points="181.51 91.6 179.09 90.2 179.28 89.08 181.7 90.48 181.51 91.6"/><polygon class="cls-7" points="187.2 94.88 182.61 92.23 182.8 91.11 187.39 93.76 187.2 94.88"/><polygon class="cls-7" points="172.57 76.97 170.15 75.57 170.34 74.45 172.76 75.85 172.57 76.97"/><polygon class="cls-7" points="178.26 80.25 173.67 77.6 173.86 76.48 178.45 79.13 178.26 80.25"/><polygon class="cls-7" points="184.15 96 181.73 94.61 181.92 93.48 184.34 94.88 184.15 96"/><polygon class="cls-7" points="189.84 99.29 185.25 96.64 185.44 95.52 190.03 98.17 189.84 99.29"/><polygon class="cls-7" points="189.56 69.49 187.14 68.09 187.32 66.97 189.75 68.37 189.56 69.49"/><polygon class="cls-7" points="185.9 67.37 183.47 65.97 183.66 64.85 186.08 66.25 185.9 67.37"/><polygon class="cls-7" points="195.25 72.77 190.66 70.12 190.85 69 195.43 71.65 195.25 72.77"/><polygon class="cls-7" points="173.66 68.95 171.47 67.69 171.66 66.57 173.85 67.83 173.66 68.95"/><polygon class="cls-7" points="180.14 72.69 174.83 69.63 175.01 68.5 180.33 71.57 180.14 72.69"/><polygon class="cls-7" points="186.63 76.44 181.31 73.37 181.5 72.25 186.81 75.32 186.63 76.44"/><polygon class="cls-7" points="198.61 74.71 196.43 73.45 196.61 72.33 198.8 73.59 198.61 74.71"/><polygon class="cls-7" points="205.1 78.46 199.78 75.39 199.97 74.27 205.28 77.34 205.1 78.46"/><polygon class="cls-7" points="211.58 82.2 206.26 79.13 206.45 78.01 211.77 81.08 211.58 82.2"/><polygon class="cls-7" points="175.95 76.04 170.64 72.97 170.82 71.85 176.14 74.92 175.95 76.04"/><polygon class="cls-7" points="178.75 77.65 177.12 76.71 177.31 75.59 178.94 76.53 178.75 77.65"/><polygon class="cls-7" points="181.56 79.28 179.93 78.33 180.12 77.21 181.75 78.16 181.56 79.28"/><polygon class="cls-7" points="186.75 82.27 182.74 79.95 182.92 78.83 186.94 81.15 186.75 82.27"/><polygon class="cls-7" points="192.57 76.99 190.94 76.05 191.13 74.92 192.76 75.87 192.57 76.99"/><polygon class="cls-7" points="197.76 79.98 193.74 77.67 193.93 76.55 197.95 78.86 197.76 79.98"/><polygon class="cls-7" points="198.85 80.61 194.84 78.3 195.02 77.18 199.04 79.49 198.85 80.61"/><polygon class="cls-7" points="177.47 95.03 172.24 92.01 172.43 90.89 177.66 93.91 177.47 95.03"/><polygon class="cls-7" points="180.98 97.05 178.56 95.65 178.74 94.53 181.17 95.93 180.98 97.05"/><polygon class="cls-7" points="184.5 99.09 182.08 97.69 182.26 96.57 184.69 97.97 184.5 99.09"/><polygon class="cls-7" points="190.19 102.37 185.6 99.72 185.79 98.6 190.37 101.25 190.19 102.37"/><polygon class="cls-7" points="193.82 104.47 191.4 103.07 191.59 101.95 194.01 103.35 193.82 104.47"/><polygon class="cls-7" points="199.51 107.75 194.92 105.1 195.11 103.98 199.69 106.63 199.51 107.75"/><polygon class="cls-7" points="182.07 103.44 179.65 102.04 179.83 100.92 182.26 102.32 182.07 103.44"/><polygon class="cls-7" points="187.75 106.73 183.17 104.08 183.35 102.96 187.94 105.61 187.75 106.73"/><polygon class="cls-7" points="169.41 96.14 166.99 94.74 167.18 93.62 169.6 95.02 169.41 96.14"/><polygon class="cls-7" points="172.93 98.17 170.51 96.77 170.7 95.65 173.12 97.05 172.93 98.17"/><polygon class="cls-7" points="178.62 101.45 174.03 98.8 174.22 97.68 178.81 100.33 178.62 101.45"/><polygon class="cls-7" points="173.98 95.89 171.8 94.63 171.99 93.51 174.17 94.78 173.98 95.89"/><polygon class="cls-7" points="180.47 99.64 175.15 96.57 175.34 95.45 180.66 98.52 180.47 99.64"/><polygon class="cls-7" points="186.95 103.38 181.64 100.31 181.82 99.19 187.14 102.26 186.95 103.38"/><polygon class="cls-7" points="167.62 97.98 162.31 94.92 162.5 93.8 167.81 96.86 167.62 97.98"/><polygon class="cls-7" points="170.42 99.6 168.79 98.66 168.98 97.54 170.61 98.48 170.42 99.6"/><polygon class="cls-7" points="173.23 101.22 171.6 100.28 171.79 99.16 173.42 100.1 173.23 101.22"/><polygon class="cls-7" points="178.42 104.22 174.41 101.9 174.59 100.78 178.61 103.1 178.42 104.22"/><polygon class="cls-7" points="179.51 104.85 175.5 102.53 175.69 101.41 179.7 103.73 179.51 104.85"/><polygon class="cls-7" points="170.02 87.84 168.38 86.9 168.57 85.78 170.2 86.72 170.02 87.84"/><polygon class="cls-7" points="175.21 90.84 171.19 88.52 171.38 87.4 175.39 89.72 175.21 90.84"/><polygon class="cls-7" points="180.51 93.9 176.49 91.58 176.68 90.46 180.7 92.78 180.51 93.9"/><polygon class="cls-7" points="200.94 111.46 198.52 110.06 198.71 108.94 201.13 110.34 200.94 111.46"/><polygon class="cls-7" points="206.63 114.74 202.04 112.09 202.23 110.97 206.82 113.62 206.63 114.74"/><polygon class="cls-7" points="192 106.3 187.98 103.98 188.17 102.86 192.18 105.17 192 106.3"/><polygon class="cls-7" points="197.3 109.36 193.28 107.04 193.47 105.92 197.49 108.24 197.3 109.36"/><polygon class="cls-7" points="167.18 76.73 165.54 75.79 165.73 74.67 167.37 75.61 167.18 76.73"/><polygon class="cls-7" points="172.37 79.73 168.35 77.41 168.54 76.29 172.56 78.61 172.37 79.73"/><polygon class="cls-7" points="177.67 82.79 173.66 80.47 173.84 79.35 177.86 81.67 177.67 82.79"/><path class="cls-7" d="M257.79,123.63a2.25,2.25,0,0,1-1.13-.33l-32.45-18.73a4.46,4.46,0,0,1-1.91-4.32l2.07-12.38a2.34,2.34,0,0,1,1.19-1.78,2,2,0,0,1,1.88.15L259.9,105a4.47,4.47,0,0,1,1.91,4.32l-2.08,12.38a2.29,2.29,0,0,1-1.19,1.78A1.79,1.79,0,0,1,257.79,123.63ZM226.32,86.38a1.31,1.31,0,0,0-.56.12,1.88,1.88,0,0,0-.94,1.44l-2.07,12.39a4,4,0,0,0,1.69,3.84l32.45,18.74a1.58,1.58,0,0,0,1.46.14,1.87,1.87,0,0,0,.93-1.45l2.08-12.38a4,4,0,0,0-1.69-3.84L227.21,86.64A1.71,1.71,0,0,0,226.32,86.38Z"/><path class="cls-7" d="M254.22,144.91a2.19,2.19,0,0,1-1.12-.33l-32.46-18.74a4.45,4.45,0,0,1-1.91-4.31l2.08-12.38a2.29,2.29,0,0,1,1.19-1.78,2,2,0,0,1,1.87.15l32.46,18.74a4.47,4.47,0,0,1,1.91,4.32L256.16,143a2.29,2.29,0,0,1-1.19,1.78A1.79,1.79,0,0,1,254.22,144.91Zm-.9-.72a1.58,1.58,0,0,0,1.46.14,1.84,1.84,0,0,0,.93-1.45l2.08-12.38a4,4,0,0,0-1.69-3.84l-32.45-18.74a1.55,1.55,0,0,0-1.46-.14,1.83,1.83,0,0,0-.93,1.44l-2.08,12.39a4,4,0,0,0,1.69,3.84Z"/><path class="cls-22" d="M227.12,103.23c.58.33,1.09.21,1.28-.31l3.78-10.34c.44-1.18,2.2-.11,2.58,1.55l2.33,10.41a3,3,0,0,0,1.29,1.87l.56.32c.54.31,1,.22,1.24-.23l.77-1.63c.48-1,2.07-.06,2.51,1.5h0a3,3,0,0,0,1.26,1.73l.49.28c.59.34,1.11.2,1.28-.35l.71-2.16c.39-1.21,2.17-.2,2.57,1.48L252.1,117a3.09,3.09,0,0,0,1.31,1.84Z"/><path class="cls-7" d="M249.3,140a3.19,3.19,0,0,1-1.41-2l-2.34-9.63c-.24-1-1.08-1.82-1.66-1.84a.46.46,0,0,0-.47.38l-.7,2.16a1,1,0,0,1-.56.63,1.26,1.26,0,0,1-1.06-.16l-.49-.28a3.25,3.25,0,0,1-1.37-1.87,2.35,2.35,0,0,0-1.6-1.75.45.45,0,0,0-.48.29l-.77,1.63a.9.9,0,0,1-.55.5,1.23,1.23,0,0,1-1-.17l-.56-.32a3.26,3.26,0,0,1-1.4-2l-2.33-10.41a2.39,2.39,0,0,0-1.65-1.88.47.47,0,0,0-.49.35L224.62,124a.94.94,0,0,1-.56.59,1.24,1.24,0,0,1-1.05-.16l.23-.39a.8.8,0,0,0,.66.12.47.47,0,0,0,.29-.31L228,113.5a.91.91,0,0,1,.95-.65,2.78,2.78,0,0,1,2.06,2.23l2.33,10.41a2.8,2.8,0,0,0,1.19,1.71l.56.33a.85.85,0,0,0,.64.13.48.48,0,0,0,.28-.26l.77-1.64a.9.9,0,0,1,.93-.54,2.75,2.75,0,0,1,2,2.08,2.81,2.81,0,0,0,1.16,1.6l.48.28a.83.83,0,0,0,.67.12.5.5,0,0,0,.29-.34l.7-2.16a.92.92,0,0,1,.89-.69h0a2.75,2.75,0,0,1,2.09,2.18l2.33,9.64a2.81,2.81,0,0,0,1.19,1.68Z"/><path class="cls-7" d="M236.28,75.83a2.81,2.81,0,0,1-1.42-.4L209.48,60.78a4.53,4.53,0,0,1-1.95-4.86,2.73,2.73,0,0,1,1.54-1.87,2.6,2.6,0,0,1,2.33.23l25.37,14.65a4.5,4.5,0,0,1,1.95,4.86,2.68,2.68,0,0,1-1.54,1.87A2.52,2.52,0,0,1,236.28,75.83ZM210,54.33a2,2,0,0,0-.72.14A2.25,2.25,0,0,0,208,56a4,4,0,0,0,1.74,4.34L235.09,75a2.11,2.11,0,0,0,1.92.2,2.25,2.25,0,0,0,1.27-1.56,4,4,0,0,0-1.74-4.35L211.17,54.67A2.38,2.38,0,0,0,210,54.33Z"/></g></g></g></svg>